<mxfile host="65bd71144e">
    <diagram id="AAkjvp57nBtfPctMII-v" name="Page-1">
        <mxGraphModel dx="1957" dy="1007" grid="0" gridSize="10" guides="1" tooltips="1" connect="1" arrows="1" fold="1" page="1" pageScale="1" pageWidth="827" pageHeight="1169" math="1" shadow="0">
            <root>
                <mxCell id="0"/>
                <mxCell id="1" parent="0"/>
                <mxCell id="795" value="" style="shape=cube;whiteSpace=wrap;html=1;boundedLbl=1;backgroundOutline=1;darkOpacity=0.05;darkOpacity2=0.1;size=20;movable=1;resizable=1;rotatable=1;deletable=1;editable=1;connectable=1;fillColor=default;" parent="1" vertex="1">
                    <mxGeometry x="1316.15" y="301" width="70" height="70" as="geometry"/>
                </mxCell>
                <mxCell id="796" value="" style="shape=cube;whiteSpace=wrap;html=1;boundedLbl=1;backgroundOutline=1;darkOpacity=0.05;darkOpacity2=0.1;size=20;movable=1;resizable=1;rotatable=1;deletable=1;editable=1;connectable=1;fillColor=default;" parent="1" vertex="1">
                    <mxGeometry x="1316.15" y="251" width="70" height="70" as="geometry"/>
                </mxCell>
                <mxCell id="797" value="" style="shape=cube;whiteSpace=wrap;html=1;boundedLbl=1;backgroundOutline=1;darkOpacity=0.05;darkOpacity2=0.1;size=20;movable=1;resizable=1;rotatable=1;deletable=1;editable=1;connectable=1;fillColor=default;" parent="1" vertex="1">
                    <mxGeometry x="1316.15" y="201" width="70" height="70" as="geometry"/>
                </mxCell>
                <mxCell id="798" value="" style="shape=cube;whiteSpace=wrap;html=1;boundedLbl=1;backgroundOutline=1;darkOpacity=0.05;darkOpacity2=0.1;size=20;movable=1;resizable=1;rotatable=1;deletable=1;editable=1;connectable=1;fillColor=default;" parent="1" vertex="1">
                    <mxGeometry x="1266.15" y="301" width="70" height="70" as="geometry"/>
                </mxCell>
                <mxCell id="799" value="" style="shape=cube;whiteSpace=wrap;html=1;boundedLbl=1;backgroundOutline=1;darkOpacity=0.05;darkOpacity2=0.1;size=20;movable=1;resizable=1;rotatable=1;deletable=1;editable=1;connectable=1;fillColor=default;" parent="1" vertex="1">
                    <mxGeometry x="1266.15" y="251" width="70" height="70" as="geometry"/>
                </mxCell>
                <mxCell id="800" value="" style="shape=cube;whiteSpace=wrap;html=1;boundedLbl=1;backgroundOutline=1;darkOpacity=0.05;darkOpacity2=0.1;size=20;movable=1;resizable=1;rotatable=1;deletable=1;editable=1;connectable=1;fillColor=default;" parent="1" vertex="1">
                    <mxGeometry x="1266.15" y="201" width="70" height="70" as="geometry"/>
                </mxCell>
                <mxCell id="801" value="" style="shape=cube;whiteSpace=wrap;html=1;boundedLbl=1;backgroundOutline=1;darkOpacity=0.05;darkOpacity2=0.1;size=20;movable=1;resizable=1;rotatable=1;deletable=1;editable=1;connectable=1;fillColor=default;" parent="1" vertex="1">
                    <mxGeometry x="1216.66" y="301" width="70" height="70" as="geometry"/>
                </mxCell>
                <mxCell id="802" value="" style="shape=cube;whiteSpace=wrap;html=1;boundedLbl=1;backgroundOutline=1;darkOpacity=0.05;darkOpacity2=0.1;size=20;movable=1;resizable=1;rotatable=1;deletable=1;editable=1;connectable=1;fillColor=default;" parent="1" vertex="1">
                    <mxGeometry x="1216.66" y="251" width="70" height="70" as="geometry"/>
                </mxCell>
                <mxCell id="803" value="" style="shape=cube;whiteSpace=wrap;html=1;boundedLbl=1;backgroundOutline=1;darkOpacity=0.05;darkOpacity2=0.1;size=20;movable=1;resizable=1;rotatable=1;deletable=1;editable=1;connectable=1;fillColor=default;" parent="1" vertex="1">
                    <mxGeometry x="1216.66" y="201" width="70" height="70" as="geometry"/>
                </mxCell>
                <mxCell id="739" value="" style="shape=cube;whiteSpace=wrap;html=1;boundedLbl=1;backgroundOutline=1;darkOpacity=0.05;darkOpacity2=0.1;size=20;movable=1;resizable=1;rotatable=1;deletable=1;editable=1;connectable=1;fillColor=default;" parent="1" vertex="1">
                    <mxGeometry x="1336.4" y="321" width="9.26" height="80" as="geometry"/>
                </mxCell>
                <mxCell id="740" value="" style="shape=cube;whiteSpace=wrap;html=1;boundedLbl=1;backgroundOutline=1;darkOpacity=0.05;darkOpacity2=0.1;size=20;movable=1;resizable=1;rotatable=1;deletable=1;editable=1;connectable=1;fillColor=default;" parent="1" vertex="1">
                    <mxGeometry x="1336.4" y="271" width="70" height="70" as="geometry"/>
                </mxCell>
                <mxCell id="741" value="" style="shape=cube;whiteSpace=wrap;html=1;boundedLbl=1;backgroundOutline=1;darkOpacity=0.05;darkOpacity2=0.1;size=20;movable=1;resizable=1;rotatable=1;deletable=1;editable=1;connectable=1;fillColor=default;" parent="1" vertex="1">
                    <mxGeometry x="1336.4" y="221" width="70" height="70" as="geometry"/>
                </mxCell>
                <mxCell id="727" value="" style="shape=cube;whiteSpace=wrap;html=1;boundedLbl=1;backgroundOutline=1;darkOpacity=0.05;darkOpacity2=0.1;size=20;movable=1;resizable=1;rotatable=1;deletable=1;editable=1;connectable=1;fillColor=default;" parent="1" vertex="1">
                    <mxGeometry x="1266.4" y="301" width="70" height="70" as="geometry"/>
                </mxCell>
                <mxCell id="735" value="" style="edgeStyle=none;html=1;fontSize=24;strokeColor=#999999;" parent="1" source="734" edge="1">
                    <mxGeometry relative="1" as="geometry">
                        <mxPoint x="1286.4" y="321" as="targetPoint"/>
                    </mxGeometry>
                </mxCell>
                <mxCell id="734" value="" style="shape=cube;whiteSpace=wrap;html=1;boundedLbl=1;backgroundOutline=1;darkOpacity=0.05;darkOpacity2=0.1;size=20;movable=1;resizable=1;rotatable=1;deletable=1;editable=1;connectable=1;fillColor=default;" parent="1" vertex="1">
                    <mxGeometry x="1286.4" y="321" width="70" height="70" as="geometry"/>
                </mxCell>
                <mxCell id="723" value="" style="shape=cube;whiteSpace=wrap;html=1;boundedLbl=1;backgroundOutline=1;darkOpacity=0.05;darkOpacity2=0.1;size=20;movable=1;resizable=1;rotatable=1;deletable=1;editable=1;connectable=1;fillColor=default;" parent="1" vertex="1">
                    <mxGeometry x="927.66" y="251" width="70" height="70" as="geometry"/>
                </mxCell>
                <mxCell id="724" value="" style="shape=cube;whiteSpace=wrap;html=1;boundedLbl=1;backgroundOutline=1;darkOpacity=0.05;darkOpacity2=0.1;size=20;movable=1;resizable=1;rotatable=1;deletable=1;editable=1;connectable=1;fillColor=#f8cecc;strokeColor=#b85450;" parent="1" vertex="1">
                    <mxGeometry x="947.66" y="271" width="70" height="70" as="geometry"/>
                </mxCell>
                <mxCell id="721" value="" style="shape=cube;whiteSpace=wrap;html=1;boundedLbl=1;backgroundOutline=1;darkOpacity=0.05;darkOpacity2=0.1;size=20;movable=1;resizable=1;rotatable=1;deletable=1;editable=1;connectable=1;fillColor=default;" parent="1" vertex="1">
                    <mxGeometry x="947.66" y="321" width="70" height="70" as="geometry"/>
                </mxCell>
                <mxCell id="719" value="" style="shape=cube;whiteSpace=wrap;html=1;boundedLbl=1;backgroundOutline=1;darkOpacity=0.05;darkOpacity2=0.1;size=20;movable=1;resizable=1;rotatable=1;deletable=1;editable=1;connectable=1;fillColor=default;" parent="1" vertex="1">
                    <mxGeometry x="997.6599999999999" y="271" width="70" height="70" as="geometry"/>
                </mxCell>
                <mxCell id="716" value="" style="shape=cube;whiteSpace=wrap;html=1;boundedLbl=1;backgroundOutline=1;darkOpacity=0.05;darkOpacity2=0.1;size=20;movable=1;resizable=1;rotatable=1;deletable=1;editable=1;connectable=1;fillColor=none;" parent="1" vertex="1">
                    <mxGeometry x="947.66" y="271" width="70" height="70" as="geometry"/>
                </mxCell>
                <mxCell id="61" value="" style="shape=cube;whiteSpace=wrap;html=1;boundedLbl=1;backgroundOutline=1;darkOpacity=0.05;darkOpacity2=0.1;size=20;fillColor=#fff2cc;strokeColor=#d6b656;movable=1;resizable=1;rotatable=1;deletable=1;editable=1;connectable=1;" parent="1" vertex="1">
                    <mxGeometry x="399" y="486" width="70" height="70" as="geometry"/>
                </mxCell>
                <mxCell id="64" value="" style="shape=cube;whiteSpace=wrap;html=1;boundedLbl=1;backgroundOutline=1;darkOpacity=0.05;darkOpacity2=0.1;size=20;movable=1;resizable=1;rotatable=1;deletable=1;editable=1;connectable=1;" parent="1" vertex="1">
                    <mxGeometry x="419" y="506" width="70" height="70" as="geometry"/>
                </mxCell>
                <mxCell id="60" value="" style="shape=cube;whiteSpace=wrap;html=1;boundedLbl=1;backgroundOutline=1;darkOpacity=0.05;darkOpacity2=0.1;size=20;movable=1;resizable=1;rotatable=1;deletable=1;editable=1;connectable=1;" parent="1" vertex="1">
                    <mxGeometry x="349" y="486" width="70" height="70" as="geometry"/>
                </mxCell>
                <mxCell id="34" value="" style="shape=cube;whiteSpace=wrap;html=1;boundedLbl=1;backgroundOutline=1;darkOpacity=0.05;darkOpacity2=0.1;size=20;movable=1;resizable=1;rotatable=1;deletable=1;editable=1;connectable=1;" parent="1" vertex="1">
                    <mxGeometry x="299" y="586" width="70" height="70" as="geometry"/>
                </mxCell>
                <mxCell id="49" value="" style="shape=cube;whiteSpace=wrap;html=1;boundedLbl=1;backgroundOutline=1;darkOpacity=0.05;darkOpacity2=0.1;size=20;movable=1;resizable=1;rotatable=1;deletable=1;editable=1;connectable=1;" parent="1" vertex="1">
                    <mxGeometry x="299" y="536" width="70" height="70" as="geometry"/>
                </mxCell>
                <mxCell id="23" value="" style="shape=cube;whiteSpace=wrap;html=1;boundedLbl=1;backgroundOutline=1;darkOpacity=0.05;darkOpacity2=0.1;size=20;movable=1;resizable=1;rotatable=1;deletable=1;editable=1;connectable=1;" parent="1" vertex="1">
                    <mxGeometry x="299" y="865" width="70" height="70" as="geometry"/>
                </mxCell>
                <mxCell id="11" value="" style="shape=cube;whiteSpace=wrap;html=1;boundedLbl=1;backgroundOutline=1;darkOpacity=0.05;darkOpacity2=0.1;size=20;movable=1;resizable=1;rotatable=1;deletable=1;editable=1;connectable=1;" parent="1" vertex="1">
                    <mxGeometry x="369" y="885" width="70" height="70" as="geometry"/>
                </mxCell>
                <mxCell id="14" value="" style="shape=cube;whiteSpace=wrap;html=1;boundedLbl=1;backgroundOutline=1;darkOpacity=0.05;darkOpacity2=0.1;size=20;movable=1;resizable=1;rotatable=1;deletable=1;editable=1;connectable=1;" parent="1" vertex="1">
                    <mxGeometry x="319" y="885" width="70" height="70" as="geometry"/>
                </mxCell>
                <mxCell id="17" value="" style="shape=cube;whiteSpace=wrap;html=1;boundedLbl=1;backgroundOutline=1;darkOpacity=0.05;darkOpacity2=0.1;size=20;movable=1;resizable=1;rotatable=1;deletable=1;editable=1;connectable=1;" parent="1" vertex="1">
                    <mxGeometry x="419" y="885" width="70" height="70" as="geometry"/>
                </mxCell>
                <mxCell id="8" value="" style="shape=cube;whiteSpace=wrap;html=1;boundedLbl=1;backgroundOutline=1;darkOpacity=0.05;darkOpacity2=0.1;size=20;movable=1;resizable=1;rotatable=1;deletable=1;editable=1;connectable=1;fillColor=#e1d5e7;strokeColor=#9673a6;" parent="1" vertex="1">
                    <mxGeometry x="439" y="905" width="70" height="70" as="geometry"/>
                </mxCell>
                <mxCell id="12" value="" style="shape=cube;whiteSpace=wrap;html=1;boundedLbl=1;backgroundOutline=1;darkOpacity=0.05;darkOpacity2=0.1;size=20;movable=1;resizable=1;rotatable=1;deletable=1;editable=1;connectable=1;" parent="1" vertex="1">
                    <mxGeometry x="389" y="905" width="70" height="70" as="geometry"/>
                </mxCell>
                <mxCell id="15" value="" style="shape=cube;whiteSpace=wrap;html=1;boundedLbl=1;backgroundOutline=1;darkOpacity=0.05;darkOpacity2=0.1;size=20;movable=1;resizable=1;rotatable=1;deletable=1;editable=1;connectable=1;" parent="1" vertex="1">
                    <mxGeometry x="339" y="905" width="70" height="70" as="geometry"/>
                </mxCell>
                <mxCell id="16" value="" style="shape=cube;whiteSpace=wrap;html=1;boundedLbl=1;backgroundOutline=1;darkOpacity=0.05;darkOpacity2=0.1;size=20;movable=1;resizable=1;rotatable=1;deletable=1;editable=1;connectable=1;" parent="1" vertex="1">
                    <mxGeometry x="369" y="835" width="70" height="70" as="geometry"/>
                </mxCell>
                <mxCell id="18" value="" style="shape=cube;whiteSpace=wrap;html=1;boundedLbl=1;backgroundOutline=1;darkOpacity=0.05;darkOpacity2=0.1;size=20;fillColor=#dae8fc;strokeColor=#6c8ebf;movable=1;resizable=1;rotatable=1;deletable=1;editable=1;connectable=1;" parent="1" vertex="1">
                    <mxGeometry x="319" y="835" width="70" height="70" as="geometry"/>
                </mxCell>
                <mxCell id="19" value="" style="shape=cube;whiteSpace=wrap;html=1;boundedLbl=1;backgroundOutline=1;darkOpacity=0.05;darkOpacity2=0.1;size=20;movable=1;resizable=1;rotatable=1;deletable=1;editable=1;connectable=1;" parent="1" vertex="1">
                    <mxGeometry x="369" y="785" width="70" height="70" as="geometry"/>
                </mxCell>
                <mxCell id="21" value="" style="shape=cube;whiteSpace=wrap;html=1;boundedLbl=1;backgroundOutline=1;darkOpacity=0.05;darkOpacity2=0.1;size=20;movable=1;resizable=1;rotatable=1;deletable=1;editable=1;connectable=1;" parent="1" vertex="1">
                    <mxGeometry x="339" y="855" width="70" height="70" as="geometry"/>
                </mxCell>
                <mxCell id="24" value="" style="shape=cube;whiteSpace=wrap;html=1;boundedLbl=1;backgroundOutline=1;darkOpacity=0.05;darkOpacity2=0.1;size=60;fillColor=none;movable=1;resizable=1;rotatable=1;deletable=1;editable=1;connectable=1;" parent="1" vertex="1">
                    <mxGeometry x="299" y="185" width="210" height="210" as="geometry"/>
                </mxCell>
                <mxCell id="35" value="" style="shape=cube;whiteSpace=wrap;html=1;boundedLbl=1;backgroundOutline=1;darkOpacity=0.05;darkOpacity2=0.1;size=20;movable=1;resizable=1;rotatable=1;deletable=1;editable=1;connectable=1;" parent="1" vertex="1">
                    <mxGeometry x="369" y="606" width="70" height="70" as="geometry"/>
                </mxCell>
                <mxCell id="36" value="" style="shape=cube;whiteSpace=wrap;html=1;boundedLbl=1;backgroundOutline=1;darkOpacity=0.05;darkOpacity2=0.1;size=20;movable=1;resizable=1;rotatable=1;deletable=1;editable=1;connectable=1;" parent="1" vertex="1">
                    <mxGeometry x="319" y="606" width="70" height="70" as="geometry"/>
                </mxCell>
                <mxCell id="37" value="" style="shape=cube;whiteSpace=wrap;html=1;boundedLbl=1;backgroundOutline=1;darkOpacity=0.05;darkOpacity2=0.1;size=20;movable=1;resizable=1;rotatable=1;deletable=1;editable=1;connectable=1;" parent="1" vertex="1">
                    <mxGeometry x="419" y="606" width="70" height="70" as="geometry"/>
                </mxCell>
                <mxCell id="38" value="" style="shape=cube;whiteSpace=wrap;html=1;boundedLbl=1;backgroundOutline=1;darkOpacity=0.05;darkOpacity2=0.1;size=20;movable=1;resizable=1;rotatable=1;deletable=1;editable=1;connectable=1;" parent="1" vertex="1">
                    <mxGeometry x="439" y="626" width="70" height="70" as="geometry"/>
                </mxCell>
                <mxCell id="39" value="" style="shape=cube;whiteSpace=wrap;html=1;boundedLbl=1;backgroundOutline=1;darkOpacity=0.05;darkOpacity2=0.1;size=20;movable=1;resizable=1;rotatable=1;deletable=1;editable=1;connectable=1;" parent="1" vertex="1">
                    <mxGeometry x="389" y="626" width="70" height="70" as="geometry"/>
                </mxCell>
                <mxCell id="40" value="" style="shape=cube;whiteSpace=wrap;html=1;boundedLbl=1;backgroundOutline=1;darkOpacity=0.05;darkOpacity2=0.1;size=20;fillColor=#f8cecc;strokeColor=#b85450;movable=1;resizable=1;rotatable=1;deletable=1;editable=1;connectable=1;" parent="1" vertex="1">
                    <mxGeometry x="339" y="626" width="70" height="70" as="geometry"/>
                </mxCell>
                <mxCell id="41" value="" style="shape=cube;whiteSpace=wrap;html=1;boundedLbl=1;backgroundOutline=1;darkOpacity=0.05;darkOpacity2=0.1;size=20;movable=1;resizable=1;rotatable=1;deletable=1;editable=1;connectable=1;" parent="1" vertex="1">
                    <mxGeometry x="369" y="556" width="70" height="70" as="geometry"/>
                </mxCell>
                <mxCell id="42" value="" style="shape=cube;whiteSpace=wrap;html=1;boundedLbl=1;backgroundOutline=1;darkOpacity=0.05;darkOpacity2=0.1;size=20;movable=1;resizable=1;rotatable=1;deletable=1;editable=1;connectable=1;" parent="1" vertex="1">
                    <mxGeometry x="319" y="556" width="70" height="70" as="geometry"/>
                </mxCell>
                <mxCell id="43" value="" style="shape=cube;whiteSpace=wrap;html=1;boundedLbl=1;backgroundOutline=1;darkOpacity=0.05;darkOpacity2=0.1;size=20;movable=1;resizable=1;rotatable=1;deletable=1;editable=1;connectable=1;" parent="1" vertex="1">
                    <mxGeometry x="369" y="506" width="70" height="70" as="geometry"/>
                </mxCell>
                <mxCell id="46" value="" style="shape=cube;whiteSpace=wrap;html=1;boundedLbl=1;backgroundOutline=1;darkOpacity=0.05;darkOpacity2=0.1;size=20;movable=1;resizable=1;rotatable=1;deletable=1;editable=1;connectable=1;" parent="1" vertex="1">
                    <mxGeometry x="439" y="576" width="70" height="70" as="geometry"/>
                </mxCell>
                <mxCell id="47" value="" style="shape=cube;whiteSpace=wrap;html=1;boundedLbl=1;backgroundOutline=1;darkOpacity=0.05;darkOpacity2=0.1;size=20;movable=1;resizable=1;rotatable=1;deletable=1;editable=1;connectable=1;" parent="1" vertex="1">
                    <mxGeometry x="389" y="576" width="70" height="70" as="geometry"/>
                </mxCell>
                <mxCell id="44" value="" style="shape=cube;whiteSpace=wrap;html=1;boundedLbl=1;backgroundOutline=1;darkOpacity=0.05;darkOpacity2=0.1;size=20;movable=1;resizable=1;rotatable=1;deletable=1;editable=1;connectable=1;" parent="1" vertex="1">
                    <mxGeometry x="339" y="576" width="70" height="70" as="geometry"/>
                </mxCell>
                <mxCell id="52" value="" style="shape=cube;whiteSpace=wrap;html=1;boundedLbl=1;backgroundOutline=1;darkOpacity=0.05;darkOpacity2=0.1;size=20;movable=1;resizable=1;rotatable=1;deletable=1;editable=1;connectable=1;" parent="1" vertex="1">
                    <mxGeometry x="299" y="486" width="70" height="70" as="geometry"/>
                </mxCell>
                <mxCell id="53" value="" style="shape=cube;whiteSpace=wrap;html=1;boundedLbl=1;backgroundOutline=1;darkOpacity=0.05;darkOpacity2=0.1;size=20;movable=1;resizable=1;rotatable=1;deletable=1;editable=1;connectable=1;" parent="1" vertex="1">
                    <mxGeometry x="319" y="506" width="70" height="70" as="geometry"/>
                </mxCell>
                <mxCell id="57" value="" style="shape=cube;whiteSpace=wrap;html=1;boundedLbl=1;backgroundOutline=1;darkOpacity=0.05;darkOpacity2=0.1;size=20;movable=1;resizable=1;rotatable=1;deletable=1;editable=1;connectable=1;" parent="1" vertex="1">
                    <mxGeometry x="439" y="526" width="70" height="70" as="geometry"/>
                </mxCell>
                <mxCell id="58" value="" style="shape=cube;whiteSpace=wrap;html=1;boundedLbl=1;backgroundOutline=1;darkOpacity=0.05;darkOpacity2=0.1;size=20;movable=1;resizable=1;rotatable=1;deletable=1;editable=1;connectable=1;" parent="1" vertex="1">
                    <mxGeometry x="389" y="526" width="70" height="70" as="geometry"/>
                </mxCell>
                <mxCell id="59" value="" style="shape=cube;whiteSpace=wrap;html=1;boundedLbl=1;backgroundOutline=1;darkOpacity=0.05;darkOpacity2=0.1;size=20;movable=1;resizable=1;rotatable=1;deletable=1;editable=1;connectable=1;" parent="1" vertex="1">
                    <mxGeometry x="339" y="526" width="70" height="70" as="geometry"/>
                </mxCell>
                <mxCell id="65" value="" style="ellipse;whiteSpace=wrap;html=1;aspect=fixed;fillColor=#f8cecc;strokeColor=#b85450;movable=1;resizable=1;rotatable=1;deletable=1;editable=1;connectable=1;" parent="1" vertex="1">
                    <mxGeometry x="349" y="385" width="20" height="20" as="geometry"/>
                </mxCell>
                <mxCell id="66" value="" style="ellipse;whiteSpace=wrap;html=1;aspect=fixed;fillColor=#fff2cc;strokeColor=#d6b656;movable=1;resizable=1;rotatable=1;deletable=1;editable=1;connectable=1;" parent="1" vertex="1">
                    <mxGeometry x="439" y="175" width="20" height="20" as="geometry"/>
                </mxCell>
                <mxCell id="70" value="" style="endArrow=none;dashed=1;html=1;dashPattern=1 3;strokeWidth=2;exitX=0;exitY=0;exitDx=0;exitDy=150;exitPerimeter=0;strokeColor=#999999;movable=1;resizable=1;rotatable=1;deletable=1;editable=1;connectable=1;" parent="1" source="24" edge="1">
                    <mxGeometry width="50" height="50" relative="1" as="geometry">
                        <mxPoint x="359" y="515" as="sourcePoint"/>
                        <mxPoint x="449" y="335" as="targetPoint"/>
                    </mxGeometry>
                </mxCell>
                <mxCell id="71" value="" style="endArrow=none;dashed=1;html=1;dashPattern=1 3;strokeWidth=2;strokeColor=#999999;movable=1;resizable=1;rotatable=1;deletable=1;editable=1;connectable=1;" parent="1" source="66" edge="1">
                    <mxGeometry width="50" height="50" relative="1" as="geometry">
                        <mxPoint x="309" y="345" as="sourcePoint"/>
                        <mxPoint x="449" y="335" as="targetPoint"/>
                    </mxGeometry>
                </mxCell>
                <mxCell id="72" value="" style="endArrow=none;dashed=1;html=1;dashPattern=1 3;strokeWidth=2;strokeColor=#999999;movable=1;resizable=1;rotatable=1;deletable=1;editable=1;connectable=1;" parent="1" edge="1">
                    <mxGeometry width="50" height="50" relative="1" as="geometry">
                        <mxPoint x="509" y="395" as="sourcePoint"/>
                        <mxPoint x="449" y="335" as="targetPoint"/>
                    </mxGeometry>
                </mxCell>
                <mxCell id="202" value="\(V_{min}\)" style="text;html=1;align=center;verticalAlign=middle;resizable=1;points=[];autosize=1;strokeColor=none;fillColor=none;movable=1;rotatable=1;deletable=1;editable=1;connectable=1;" parent="1" vertex="1">
                    <mxGeometry x="289" y="385" width="70" height="20" as="geometry"/>
                </mxCell>
                <mxCell id="203" value="\(V_{max}\)" style="text;html=1;align=center;verticalAlign=middle;resizable=1;points=[];autosize=1;strokeColor=none;fillColor=none;movable=1;rotatable=1;deletable=1;editable=1;connectable=1;" parent="1" vertex="1">
                    <mxGeometry x="446" y="175" width="80" height="20" as="geometry"/>
                </mxCell>
                <mxCell id="204" value="\(\boldsymbol{v}_{V_{min}} = (0, 0, 0)\)" style="text;html=1;align=center;verticalAlign=middle;resizable=1;points=[];autosize=1;strokeColor=none;fillColor=none;movable=1;rotatable=1;deletable=1;editable=1;connectable=1;" parent="1" vertex="1">
                    <mxGeometry x="190" y="696" width="220" height="20" as="geometry"/>
                </mxCell>
                <mxCell id="205" value="\(\boldsymbol{v}_{V_{max}} = (V_{max} - V_{min})//e_l\)" style="text;html=1;align=center;verticalAlign=middle;resizable=1;points=[];autosize=1;strokeColor=none;fillColor=none;movable=1;rotatable=1;deletable=1;editable=1;connectable=1;" parent="1" vertex="1">
                    <mxGeometry x="389" y="466" width="310" height="20" as="geometry"/>
                </mxCell>
                <mxCell id="206" value="" style="shape=crossbar;whiteSpace=wrap;html=1;rounded=1;fillColor=none;movable=1;resizable=1;rotatable=1;deletable=1;editable=1;connectable=1;" parent="1" vertex="1">
                    <mxGeometry x="409" y="706" width="50" height="10" as="geometry"/>
                </mxCell>
                <mxCell id="207" value="\(e_l\)" style="text;html=1;align=center;verticalAlign=middle;resizable=1;points=[];autosize=1;strokeColor=none;fillColor=none;movable=1;rotatable=1;deletable=1;editable=1;connectable=1;" parent="1" vertex="1">
                    <mxGeometry x="409" y="710" width="50" height="20" as="geometry"/>
                </mxCell>
                <mxCell id="208" value="\(\boldsymbol{v_a} = (2, 0, 0)\)" style="text;html=1;align=center;verticalAlign=middle;resizable=1;points=[];autosize=1;strokeColor=none;fillColor=none;movable=1;rotatable=1;deletable=1;editable=1;connectable=1;" parent="1" vertex="1">
                    <mxGeometry x="469" y="938" width="180" height="20" as="geometry"/>
                </mxCell>
                <mxCell id="209" value="\(\boldsymbol{v_b} = (0, 1, 1)\)" style="text;html=1;align=center;verticalAlign=middle;resizable=1;points=[];autosize=1;strokeColor=none;fillColor=none;movable=1;rotatable=1;deletable=1;editable=1;connectable=1;" parent="1" vertex="1">
                    <mxGeometry x="179" y="835" width="180" height="20" as="geometry"/>
                </mxCell>
                <mxCell id="210" value="\(x\)" style="text;html=1;align=center;verticalAlign=middle;resizable=0;points=[];autosize=1;strokeColor=none;fillColor=none;" parent="1" vertex="1">
                    <mxGeometry x="418" y="395" width="40" height="20" as="geometry"/>
                </mxCell>
                <mxCell id="211" value="\(y\)" style="text;html=1;align=center;verticalAlign=middle;resizable=0;points=[];autosize=1;strokeColor=none;fillColor=none;" parent="1" vertex="1">
                    <mxGeometry x="349" y="305" width="40" height="20" as="geometry"/>
                </mxCell>
                <mxCell id="212" value="\(z\)" style="text;html=1;align=center;verticalAlign=middle;resizable=0;points=[];autosize=1;strokeColor=none;fillColor=none;" parent="1" vertex="1">
                    <mxGeometry x="289" y="355" width="40" height="20" as="geometry"/>
                </mxCell>
                <mxCell id="273" value="" style="group" parent="1" vertex="1" connectable="0">
                    <mxGeometry x="110" y="1110" width="160" height="160" as="geometry"/>
                </mxCell>
                <mxCell id="254" value="0" style="whiteSpace=wrap;html=1;aspect=fixed;fillColor=#f8cecc;strokeColor=#b85450;" parent="273" vertex="1">
                    <mxGeometry width="40" height="40" as="geometry"/>
                </mxCell>
                <mxCell id="255" value="1" style="whiteSpace=wrap;html=1;aspect=fixed;fillColor=none;" parent="273" vertex="1">
                    <mxGeometry x="40" width="40" height="40" as="geometry"/>
                </mxCell>
                <mxCell id="256" value="4" style="whiteSpace=wrap;html=1;aspect=fixed;fillColor=none;" parent="273" vertex="1">
                    <mxGeometry x="80" width="40" height="40" as="geometry"/>
                </mxCell>
                <mxCell id="257" value="5" style="whiteSpace=wrap;html=1;aspect=fixed;fillColor=none;" parent="273" vertex="1">
                    <mxGeometry x="120" width="40" height="40" as="geometry"/>
                </mxCell>
                <mxCell id="258" value="2" style="whiteSpace=wrap;html=1;aspect=fixed;fillColor=#f8cecc;strokeColor=#b85450;" parent="273" vertex="1">
                    <mxGeometry y="40" width="40" height="40" as="geometry"/>
                </mxCell>
                <mxCell id="259" value="3" style="whiteSpace=wrap;html=1;aspect=fixed;fillColor=#f8cecc;strokeColor=#b85450;" parent="273" vertex="1">
                    <mxGeometry x="40" y="40" width="40" height="40" as="geometry"/>
                </mxCell>
                <mxCell id="260" value="6" style="whiteSpace=wrap;html=1;aspect=fixed;" parent="273" vertex="1">
                    <mxGeometry x="80" y="40" width="40" height="40" as="geometry"/>
                </mxCell>
                <mxCell id="261" value="7" style="whiteSpace=wrap;html=1;aspect=fixed;fillColor=none;" parent="273" vertex="1">
                    <mxGeometry x="120" y="40" width="40" height="40" as="geometry"/>
                </mxCell>
                <mxCell id="262" value="8" style="whiteSpace=wrap;html=1;aspect=fixed;fillColor=#f8cecc;strokeColor=#b85450;" parent="273" vertex="1">
                    <mxGeometry y="80" width="40" height="40" as="geometry"/>
                </mxCell>
                <mxCell id="263" value="9" style="whiteSpace=wrap;html=1;aspect=fixed;fillColor=#f8cecc;strokeColor=#b85450;" parent="273" vertex="1">
                    <mxGeometry x="40" y="80" width="40" height="40" as="geometry"/>
                </mxCell>
                <mxCell id="264" value="12" style="whiteSpace=wrap;html=1;aspect=fixed;fillColor=#f8cecc;strokeColor=#b85450;" parent="273" vertex="1">
                    <mxGeometry x="80" y="80" width="40" height="40" as="geometry"/>
                </mxCell>
                <mxCell id="265" value="13" style="whiteSpace=wrap;html=1;aspect=fixed;fillColor=none;" parent="273" vertex="1">
                    <mxGeometry x="120" y="80" width="40" height="40" as="geometry"/>
                </mxCell>
                <mxCell id="266" value="10" style="whiteSpace=wrap;html=1;aspect=fixed;fillColor=none;" parent="273" vertex="1">
                    <mxGeometry y="120" width="40" height="40" as="geometry"/>
                </mxCell>
                <mxCell id="267" value="11" style="whiteSpace=wrap;html=1;aspect=fixed;fillColor=none;" parent="273" vertex="1">
                    <mxGeometry x="40" y="120" width="40" height="40" as="geometry"/>
                </mxCell>
                <mxCell id="268" value="14" style="whiteSpace=wrap;html=1;aspect=fixed;fillColor=#f8cecc;strokeColor=#b85450;" parent="273" vertex="1">
                    <mxGeometry x="80" y="120" width="40" height="40" as="geometry"/>
                </mxCell>
                <mxCell id="269" value="15" style="whiteSpace=wrap;html=1;aspect=fixed;fillColor=none;" parent="273" vertex="1">
                    <mxGeometry x="120" y="120" width="40" height="40" as="geometry"/>
                </mxCell>
                <mxCell id="275" value="2" style="whiteSpace=wrap;html=1;aspect=fixed;fillColor=#f8cecc;strokeColor=#b85450;" parent="1" vertex="1">
                    <mxGeometry x="320" y="1190" width="80" height="80" as="geometry"/>
                </mxCell>
                <mxCell id="276" value="3" style="whiteSpace=wrap;html=1;aspect=fixed;fillColor=#f8cecc;strokeColor=#b85450;" parent="1" vertex="1">
                    <mxGeometry x="400" y="1190" width="80" height="80" as="geometry"/>
                </mxCell>
                <mxCell id="277" value="1" style="whiteSpace=wrap;html=1;aspect=fixed;fillColor=none;" parent="1" vertex="1">
                    <mxGeometry x="400" y="1110" width="80" height="80" as="geometry"/>
                </mxCell>
                <mxCell id="278" value="0" style="whiteSpace=wrap;html=1;aspect=fixed;fillColor=#f8cecc;strokeColor=#b85450;" parent="1" vertex="1">
                    <mxGeometry x="320" y="1110" width="80" height="80" as="geometry"/>
                </mxCell>
                <mxCell id="279" value="0" style="whiteSpace=wrap;html=1;aspect=fixed;fillColor=#f8cecc;strokeColor=#b85450;" parent="1" vertex="1">
                    <mxGeometry x="527" y="1110" width="160" height="160" as="geometry"/>
                </mxCell>
                <mxCell id="286" style="edgeStyle=none;html=1;exitX=0.5;exitY=1;exitDx=0;exitDy=0;entryX=0.5;entryY=0;entryDx=0;entryDy=0;" parent="1" source="281" target="282" edge="1">
                    <mxGeometry relative="1" as="geometry"/>
                </mxCell>
                <mxCell id="288" style="edgeStyle=none;html=1;exitX=0.5;exitY=1;exitDx=0;exitDy=0;entryX=0.5;entryY=0;entryDx=0;entryDy=0;" parent="1" source="281" target="284" edge="1">
                    <mxGeometry relative="1" as="geometry"/>
                </mxCell>
                <mxCell id="289" style="edgeStyle=none;html=1;exitX=0.5;exitY=1;exitDx=0;exitDy=0;entryX=0.5;entryY=0;entryDx=0;entryDy=0;" parent="1" source="281" target="285" edge="1">
                    <mxGeometry relative="1" as="geometry"/>
                </mxCell>
                <mxCell id="281" value="0" style="ellipse;whiteSpace=wrap;html=1;aspect=fixed;fillColor=#dae8fc;strokeColor=#6c8ebf;" parent="1" vertex="1">
                    <mxGeometry x="380" y="1460" width="40" height="40" as="geometry"/>
                </mxCell>
                <mxCell id="306" style="edgeStyle=none;html=1;exitX=0.5;exitY=1;exitDx=0;exitDy=0;entryX=0.5;entryY=0;entryDx=0;entryDy=0;" parent="1" source="282" target="290" edge="1">
                    <mxGeometry relative="1" as="geometry"/>
                </mxCell>
                <mxCell id="308" style="edgeStyle=none;html=1;exitX=0.5;exitY=1;exitDx=0;exitDy=0;entryX=0.5;entryY=0;entryDx=0;entryDy=0;" parent="1" source="282" target="292" edge="1">
                    <mxGeometry relative="1" as="geometry"/>
                </mxCell>
                <mxCell id="309" style="edgeStyle=none;html=1;exitX=0.5;exitY=1;exitDx=0;exitDy=0;entryX=0.5;entryY=0;entryDx=0;entryDy=0;" parent="1" source="282" target="293" edge="1">
                    <mxGeometry relative="1" as="geometry"/>
                </mxCell>
                <mxCell id="282" value="0" style="ellipse;whiteSpace=wrap;html=1;aspect=fixed;" parent="1" vertex="1">
                    <mxGeometry x="270" y="1580" width="40" height="40" as="geometry"/>
                </mxCell>
                <mxCell id="310" style="edgeStyle=none;html=1;exitX=0.5;exitY=1;exitDx=0;exitDy=0;entryX=0.5;entryY=0;entryDx=0;entryDy=0;" parent="1" source="284" target="298" edge="1">
                    <mxGeometry relative="1" as="geometry"/>
                </mxCell>
                <mxCell id="311" style="edgeStyle=none;html=1;exitX=0.5;exitY=1;exitDx=0;exitDy=0;entryX=0.5;entryY=0;entryDx=0;entryDy=0;" parent="1" source="284" target="299" edge="1">
                    <mxGeometry relative="1" as="geometry"/>
                </mxCell>
                <mxCell id="284" value="2" style="ellipse;whiteSpace=wrap;html=1;aspect=fixed;" parent="1" vertex="1">
                    <mxGeometry x="380" y="1580" width="40" height="40" as="geometry"/>
                </mxCell>
                <mxCell id="314" style="edgeStyle=none;html=1;exitX=0.5;exitY=1;exitDx=0;exitDy=0;entryX=0.5;entryY=0;entryDx=0;entryDy=0;" parent="1" source="285" target="302" edge="1">
                    <mxGeometry relative="1" as="geometry"/>
                </mxCell>
                <mxCell id="316" style="edgeStyle=none;html=1;exitX=0.5;exitY=1;exitDx=0;exitDy=0;entryX=0.5;entryY=0;entryDx=0;entryDy=0;" parent="1" source="285" target="304" edge="1">
                    <mxGeometry relative="1" as="geometry"/>
                </mxCell>
                <mxCell id="285" value="3" style="ellipse;whiteSpace=wrap;html=1;aspect=fixed;" parent="1" vertex="1">
                    <mxGeometry x="490" y="1580" width="40" height="40" as="geometry"/>
                </mxCell>
                <mxCell id="290" value="0" style="ellipse;whiteSpace=wrap;html=1;aspect=fixed;fillColor=#d5e8d4;strokeColor=#82b366;" parent="1" vertex="1">
                    <mxGeometry x="230" y="1700" width="40" height="40" as="geometry"/>
                </mxCell>
                <mxCell id="292" value="2" style="ellipse;whiteSpace=wrap;html=1;aspect=fixed;fillColor=#d5e8d4;strokeColor=#82b366;" parent="1" vertex="1">
                    <mxGeometry x="270" y="1700" width="40" height="40" as="geometry"/>
                </mxCell>
                <mxCell id="293" value="3" style="ellipse;whiteSpace=wrap;html=1;aspect=fixed;fillColor=#d5e8d4;strokeColor=#82b366;" parent="1" vertex="1">
                    <mxGeometry x="310" y="1700" width="40" height="40" as="geometry"/>
                </mxCell>
                <mxCell id="298" value="8" style="ellipse;whiteSpace=wrap;html=1;aspect=fixed;fillColor=#d5e8d4;strokeColor=#82b366;" parent="1" vertex="1">
                    <mxGeometry x="364" y="1700" width="40" height="40" as="geometry"/>
                </mxCell>
                <mxCell id="299" value="9" style="ellipse;whiteSpace=wrap;html=1;aspect=fixed;fillColor=#d5e8d4;strokeColor=#82b366;" parent="1" vertex="1">
                    <mxGeometry x="404" y="1700" width="40" height="40" as="geometry"/>
                </mxCell>
                <mxCell id="302" value="12" style="ellipse;whiteSpace=wrap;html=1;aspect=fixed;fillColor=#d5e8d4;strokeColor=#82b366;" parent="1" vertex="1">
                    <mxGeometry x="477" y="1700" width="40" height="40" as="geometry"/>
                </mxCell>
                <mxCell id="304" value="14" style="ellipse;whiteSpace=wrap;html=1;aspect=fixed;fillColor=#d5e8d4;strokeColor=#82b366;" parent="1" vertex="1">
                    <mxGeometry x="517" y="1700" width="40" height="40" as="geometry"/>
                </mxCell>
                <mxCell id="325" value="&lt;font style=&quot;font-size: 24px&quot;&gt;Morton code&lt;/font&gt;" style="text;html=1;align=center;verticalAlign=middle;resizable=0;points=[];autosize=1;strokeColor=none;fillColor=none;fontStyle=1" parent="1" vertex="1">
                    <mxGeometry x="105" y="1020" width="160" height="20" as="geometry"/>
                </mxCell>
                <mxCell id="326" value="&lt;font style=&quot;font-size: 24px&quot;&gt;&lt;b&gt;Sparse Voxel Octree&lt;/b&gt;&lt;/font&gt;" style="text;html=1;align=center;verticalAlign=middle;resizable=0;points=[];autosize=1;strokeColor=none;fillColor=none;" parent="1" vertex="1">
                    <mxGeometry x="105" y="1380" width="250" height="20" as="geometry"/>
                </mxCell>
                <mxCell id="327" value="&lt;font style=&quot;font-size: 24px&quot;&gt;Voxel Grid&lt;/font&gt;" style="text;html=1;align=center;verticalAlign=middle;resizable=0;points=[];autosize=1;strokeColor=none;fillColor=none;fontStyle=1" parent="1" vertex="1">
                    <mxGeometry x="110" y="130" width="130" height="20" as="geometry"/>
                </mxCell>
                <mxCell id="328" value="" style="whiteSpace=wrap;html=1;aspect=fixed;fontSize=24;fillColor=#f5f5f5;container=0;strokeColor=#666666;fontColor=#333333;" parent="1" vertex="1">
                    <mxGeometry x="240" y="1890" width="26.666666666666668" height="26.666666666666668" as="geometry"/>
                </mxCell>
                <mxCell id="331" value="" style="whiteSpace=wrap;html=1;aspect=fixed;fontSize=24;fillColor=#f5f5f5;container=0;strokeColor=#666666;fontColor=#333333;" parent="1" vertex="1">
                    <mxGeometry x="240" y="1916.6666666666667" width="26.666666666666668" height="26.666666666666668" as="geometry"/>
                </mxCell>
                <mxCell id="334" value="" style="whiteSpace=wrap;html=1;aspect=fixed;fontSize=24;fillColor=#f5f5f5;container=0;strokeColor=#666666;fontColor=#333333;" parent="1" vertex="1">
                    <mxGeometry x="240" y="1943.3333333333333" width="26.666666666666668" height="26.666666666666668" as="geometry"/>
                </mxCell>
                <mxCell id="343" value="" style="whiteSpace=wrap;html=1;aspect=fixed;fontSize=24;container=0;fillColor=#dae8fc;strokeColor=#6c8ebf;" parent="1" vertex="1">
                    <mxGeometry x="320" y="1916.6666666666667" width="26.666666666666668" height="26.666666666666668" as="geometry"/>
                </mxCell>
                <mxCell id="350" value="" style="whiteSpace=wrap;html=1;aspect=fixed;fontSize=24;fillColor=#f5f5f5;container=0;strokeColor=#666666;fontColor=#333333;" parent="1" vertex="1">
                    <mxGeometry x="240" y="1970" width="26.666666666666668" height="26.666666666666668" as="geometry"/>
                </mxCell>
                <mxCell id="351" value="" style="whiteSpace=wrap;html=1;aspect=fixed;fontSize=24;fillColor=#f5f5f5;container=0;strokeColor=#666666;fontColor=#333333;" parent="1" vertex="1">
                    <mxGeometry x="266.6666666666667" y="1970" width="26.666666666666668" height="26.666666666666668" as="geometry"/>
                </mxCell>
                <mxCell id="352" value="" style="whiteSpace=wrap;html=1;aspect=fixed;fontSize=24;fillColor=#dae8fc;container=0;strokeColor=#6c8ebf;" parent="1" vertex="1">
                    <mxGeometry x="293.3333333333333" y="1970" width="26.666666666666668" height="26.666666666666668" as="geometry"/>
                </mxCell>
                <mxCell id="353" value="" style="whiteSpace=wrap;html=1;aspect=fixed;fontSize=24;fillColor=#f5f5f5;container=0;strokeColor=#666666;fontColor=#333333;" parent="1" vertex="1">
                    <mxGeometry x="240" y="1996.6666666666667" width="26.666666666666668" height="26.666666666666668" as="geometry"/>
                </mxCell>
                <mxCell id="354" value="" style="whiteSpace=wrap;html=1;aspect=fixed;fontSize=24;fillColor=#f5f5f5;container=0;strokeColor=#666666;fontColor=#333333;" parent="1" vertex="1">
                    <mxGeometry x="266.6666666666667" y="1996.6666666666667" width="26.666666666666668" height="26.666666666666668" as="geometry"/>
                </mxCell>
                <mxCell id="355" value="" style="whiteSpace=wrap;html=1;aspect=fixed;fontSize=24;fillColor=#f5f5f5;container=0;strokeColor=#666666;fontColor=#333333;" parent="1" vertex="1">
                    <mxGeometry x="293.3333333333333" y="1996.6666666666667" width="26.666666666666668" height="26.666666666666668" as="geometry"/>
                </mxCell>
                <mxCell id="356" value="" style="whiteSpace=wrap;html=1;aspect=fixed;fontSize=24;fillColor=#f5f5f5;container=0;strokeColor=#666666;fontColor=#333333;" parent="1" vertex="1">
                    <mxGeometry x="240" y="2023.3333333333333" width="26.666666666666668" height="26.666666666666668" as="geometry"/>
                </mxCell>
                <mxCell id="357" value="" style="whiteSpace=wrap;html=1;aspect=fixed;fontSize=24;fillColor=#f5f5f5;container=0;strokeColor=#666666;fontColor=#333333;" parent="1" vertex="1">
                    <mxGeometry x="266.6666666666667" y="2023.3333333333333" width="26.666666666666668" height="26.666666666666668" as="geometry"/>
                </mxCell>
                <mxCell id="358" value="" style="whiteSpace=wrap;html=1;aspect=fixed;fontSize=24;fillColor=#f5f5f5;container=0;strokeColor=#666666;fontColor=#333333;" parent="1" vertex="1">
                    <mxGeometry x="293.3333333333333" y="2023.3333333333333" width="26.666666666666668" height="26.666666666666668" as="geometry"/>
                </mxCell>
                <mxCell id="362" value="" style="whiteSpace=wrap;html=1;aspect=fixed;fontSize=24;fillColor=#dae8fc;container=0;strokeColor=#6c8ebf;" parent="1" vertex="1">
                    <mxGeometry x="373.33333333333337" y="1970" width="26.666666666666668" height="26.666666666666668" as="geometry"/>
                </mxCell>
                <mxCell id="366" value="" style="whiteSpace=wrap;html=1;aspect=fixed;fontSize=24;fillColor=#dae8fc;container=0;strokeColor=#6c8ebf;" parent="1" vertex="1">
                    <mxGeometry x="320" y="2023.3333333333333" width="26.666666666666668" height="26.666666666666668" as="geometry"/>
                </mxCell>
                <mxCell id="373" value="" style="whiteSpace=wrap;html=1;aspect=fixed;fontSize=24;container=0;fillColor=#f5f5f5;strokeColor=#666666;fontColor=#333333;" parent="1" vertex="1">
                    <mxGeometry x="400" y="1916.6666666666667" width="26.666666666666668" height="26.666666666666668" as="geometry"/>
                </mxCell>
                <mxCell id="383" value="" style="whiteSpace=wrap;html=1;aspect=fixed;fontSize=24;fillColor=#dae8fc;container=0;strokeColor=#6c8ebf;" parent="1" vertex="1">
                    <mxGeometry x="480" y="1916.6666666666667" width="26.666666666666668" height="26.666666666666668" as="geometry"/>
                </mxCell>
                <mxCell id="390" value="" style="whiteSpace=wrap;html=1;aspect=fixed;fontSize=24;fillColor=#dae8fc;container=0;strokeColor=#6c8ebf;" parent="1" vertex="1">
                    <mxGeometry x="400" y="1970" width="26.666666666666668" height="26.666666666666668" as="geometry"/>
                </mxCell>
                <mxCell id="391" value="" style="whiteSpace=wrap;html=1;aspect=fixed;fontSize=24;fillColor=#dae8fc;container=0;strokeColor=#6c8ebf;" parent="1" vertex="1">
                    <mxGeometry x="426.66666666666663" y="1970" width="26.666666666666668" height="26.666666666666668" as="geometry"/>
                </mxCell>
                <mxCell id="398" value="" style="whiteSpace=wrap;html=1;aspect=fixed;fontSize=24;fillColor=#dae8fc;container=0;strokeColor=#6c8ebf;" parent="1" vertex="1">
                    <mxGeometry x="453.33333333333337" y="2023.3333333333333" width="26.666666666666668" height="26.666666666666668" as="geometry"/>
                </mxCell>
                <mxCell id="406" value="" style="whiteSpace=wrap;html=1;aspect=fixed;fontSize=24;fillColor=#f5f5f5;container=0;strokeColor=#666666;fontColor=#333333;" parent="1" vertex="1">
                    <mxGeometry x="480" y="2023.3333333333333" width="26.666666666666668" height="26.666666666666668" as="geometry"/>
                </mxCell>
                <mxCell id="407" value="" style="whiteSpace=wrap;html=1;aspect=fixed;fontSize=24;fillColor=#f5f5f5;container=0;strokeColor=#666666;fontColor=#333333;" parent="1" vertex="1">
                    <mxGeometry x="506.6666666666667" y="2023.3333333333333" width="26.666666666666668" height="26.666666666666668" as="geometry"/>
                </mxCell>
                <mxCell id="408" value="" style="whiteSpace=wrap;html=1;aspect=fixed;fontSize=24;fillColor=#f5f5f5;container=0;strokeColor=#666666;fontColor=#333333;" parent="1" vertex="1">
                    <mxGeometry x="533.3333333333333" y="2023.3333333333333" width="26.666666666666668" height="26.666666666666668" as="geometry"/>
                </mxCell>
                <mxCell id="463" value="" style="whiteSpace=wrap;html=1;aspect=fixed;fontSize=24;fillColor=#f5f5f5;container=0;strokeColor=#666666;fontColor=#333333;" parent="1" vertex="1">
                    <mxGeometry x="240" y="2050" width="26.666666666666668" height="26.666666666666668" as="geometry"/>
                </mxCell>
                <mxCell id="464" value="" style="whiteSpace=wrap;html=1;aspect=fixed;fontSize=24;fillColor=#f5f5f5;container=0;strokeColor=#666666;fontColor=#333333;" parent="1" vertex="1">
                    <mxGeometry x="266.6666666666667" y="2050" width="26.666666666666668" height="26.666666666666668" as="geometry"/>
                </mxCell>
                <mxCell id="465" value="" style="whiteSpace=wrap;html=1;aspect=fixed;fontSize=24;fillColor=#f5f5f5;container=0;strokeColor=#666666;fontColor=#333333;" parent="1" vertex="1">
                    <mxGeometry x="293.3333333333333" y="2050" width="26.666666666666668" height="26.666666666666668" as="geometry"/>
                </mxCell>
                <mxCell id="466" value="" style="whiteSpace=wrap;html=1;aspect=fixed;fontSize=24;fillColor=#f5f5f5;container=0;strokeColor=#666666;fontColor=#333333;" parent="1" vertex="1">
                    <mxGeometry x="240" y="2076.6666666666665" width="26.666666666666668" height="26.666666666666668" as="geometry"/>
                </mxCell>
                <mxCell id="467" value="" style="whiteSpace=wrap;html=1;aspect=fixed;fontSize=24;fillColor=#f5f5f5;container=0;strokeColor=#666666;fontColor=#333333;" parent="1" vertex="1">
                    <mxGeometry x="266.6666666666667" y="2076.6666666666665" width="26.666666666666668" height="26.666666666666668" as="geometry"/>
                </mxCell>
                <mxCell id="468" value="" style="whiteSpace=wrap;html=1;aspect=fixed;fontSize=24;fillColor=#f5f5f5;container=0;strokeColor=#666666;fontColor=#333333;" parent="1" vertex="1">
                    <mxGeometry x="293.3333333333333" y="2076.6666666666665" width="26.666666666666668" height="26.666666666666668" as="geometry"/>
                </mxCell>
                <mxCell id="469" value="" style="whiteSpace=wrap;html=1;aspect=fixed;fontSize=24;fillColor=#f5f5f5;container=0;strokeColor=#666666;fontColor=#333333;" parent="1" vertex="1">
                    <mxGeometry x="240" y="2103.3333333333335" width="26.666666666666668" height="26.666666666666668" as="geometry"/>
                </mxCell>
                <mxCell id="470" value="" style="whiteSpace=wrap;html=1;aspect=fixed;fontSize=24;fillColor=#f5f5f5;container=0;strokeColor=#666666;fontColor=#333333;" parent="1" vertex="1">
                    <mxGeometry x="266.6666666666667" y="2103.3333333333335" width="26.666666666666668" height="26.666666666666668" as="geometry"/>
                </mxCell>
                <mxCell id="471" value="" style="whiteSpace=wrap;html=1;aspect=fixed;fontSize=24;fillColor=#f5f5f5;container=0;strokeColor=#666666;fontColor=#333333;" parent="1" vertex="1">
                    <mxGeometry x="293.3333333333333" y="2103.3333333333335" width="26.666666666666668" height="26.666666666666668" as="geometry"/>
                </mxCell>
                <mxCell id="473" value="" style="whiteSpace=wrap;html=1;aspect=fixed;fontSize=24;fillColor=#dae8fc;container=0;strokeColor=#6c8ebf;" parent="1" vertex="1">
                    <mxGeometry x="320" y="2050" width="26.666666666666668" height="26.666666666666668" as="geometry"/>
                </mxCell>
                <mxCell id="476" value="" style="whiteSpace=wrap;html=1;aspect=fixed;fontSize=24;fillColor=#dae8fc;container=0;strokeColor=#6c8ebf;" parent="1" vertex="1">
                    <mxGeometry x="320" y="2076.6666666666665" width="26.666666666666668" height="26.666666666666668" as="geometry"/>
                </mxCell>
                <mxCell id="479" value="" style="whiteSpace=wrap;html=1;aspect=fixed;fontSize=24;fillColor=#dae8fc;container=0;strokeColor=#6c8ebf;" parent="1" vertex="1">
                    <mxGeometry x="320" y="2103.3333333333335" width="26.666666666666668" height="26.666666666666668" as="geometry"/>
                </mxCell>
                <mxCell id="483" value="" style="whiteSpace=wrap;html=1;aspect=fixed;fontSize=24;fillColor=#f5f5f5;container=0;strokeColor=#666666;fontColor=#333333;" parent="1" vertex="1">
                    <mxGeometry x="240" y="2130" width="26.666666666666668" height="26.666666666666668" as="geometry"/>
                </mxCell>
                <mxCell id="484" value="" style="whiteSpace=wrap;html=1;aspect=fixed;fontSize=24;fillColor=#f5f5f5;container=0;strokeColor=#666666;fontColor=#333333;" parent="1" vertex="1">
                    <mxGeometry x="266.6666666666667" y="2130" width="26.666666666666668" height="26.666666666666668" as="geometry"/>
                </mxCell>
                <mxCell id="485" value="" style="whiteSpace=wrap;html=1;aspect=fixed;fontSize=24;fillColor=#f5f5f5;container=0;strokeColor=#666666;fontColor=#333333;" parent="1" vertex="1">
                    <mxGeometry x="293.3333333333333" y="2130" width="26.666666666666668" height="26.666666666666668" as="geometry"/>
                </mxCell>
                <mxCell id="486" value="" style="whiteSpace=wrap;html=1;aspect=fixed;fontSize=24;fillColor=#f5f5f5;container=0;strokeColor=#666666;fontColor=#333333;" parent="1" vertex="1">
                    <mxGeometry x="240" y="2156.6666666666665" width="26.666666666666668" height="26.666666666666668" as="geometry"/>
                </mxCell>
                <mxCell id="487" value="" style="whiteSpace=wrap;html=1;aspect=fixed;fontSize=24;fillColor=#f5f5f5;container=0;strokeColor=#666666;fontColor=#333333;" parent="1" vertex="1">
                    <mxGeometry x="266.6666666666667" y="2156.6666666666665" width="26.666666666666668" height="26.666666666666668" as="geometry"/>
                </mxCell>
                <mxCell id="488" value="" style="whiteSpace=wrap;html=1;aspect=fixed;fontSize=24;fillColor=#f5f5f5;container=0;strokeColor=#666666;fontColor=#333333;" parent="1" vertex="1">
                    <mxGeometry x="293.3333333333333" y="2156.6666666666665" width="26.666666666666668" height="26.666666666666668" as="geometry"/>
                </mxCell>
                <mxCell id="489" value="" style="whiteSpace=wrap;html=1;aspect=fixed;fontSize=24;fillColor=#f5f5f5;container=0;strokeColor=#666666;fontColor=#333333;" parent="1" vertex="1">
                    <mxGeometry x="240" y="2183.3333333333335" width="26.666666666666668" height="26.666666666666668" as="geometry"/>
                </mxCell>
                <mxCell id="490" value="" style="whiteSpace=wrap;html=1;aspect=fixed;fontSize=24;fillColor=#f5f5f5;container=0;strokeColor=#666666;fontColor=#333333;" parent="1" vertex="1">
                    <mxGeometry x="266.6666666666667" y="2183.3333333333335" width="26.666666666666668" height="26.666666666666668" as="geometry"/>
                </mxCell>
                <mxCell id="491" value="" style="whiteSpace=wrap;html=1;aspect=fixed;fontSize=24;fillColor=#f5f5f5;container=0;strokeColor=#666666;fontColor=#333333;" parent="1" vertex="1">
                    <mxGeometry x="293.3333333333333" y="2183.3333333333335" width="26.666666666666668" height="26.666666666666668" as="geometry"/>
                </mxCell>
                <mxCell id="493" value="" style="whiteSpace=wrap;html=1;aspect=fixed;fontSize=24;fillColor=#dae8fc;container=0;strokeColor=#6c8ebf;" parent="1" vertex="1">
                    <mxGeometry x="320" y="2130" width="26.666666666666668" height="26.666666666666668" as="geometry"/>
                </mxCell>
                <mxCell id="496" value="" style="whiteSpace=wrap;html=1;aspect=fixed;fontSize=24;fillColor=#dae8fc;container=0;strokeColor=#6c8ebf;" parent="1" vertex="1">
                    <mxGeometry x="320" y="2156.6666666666665" width="26.666666666666668" height="26.666666666666668" as="geometry"/>
                </mxCell>
                <mxCell id="499" value="" style="whiteSpace=wrap;html=1;aspect=fixed;fontSize=24;fillColor=#dae8fc;container=0;strokeColor=#6c8ebf;" parent="1" vertex="1">
                    <mxGeometry x="320" y="2183.3333333333335" width="26.666666666666668" height="26.666666666666668" as="geometry"/>
                </mxCell>
                <mxCell id="505" value="" style="whiteSpace=wrap;html=1;aspect=fixed;fontSize=24;fillColor=#dae8fc;container=0;strokeColor=#6c8ebf;" parent="1" vertex="1">
                    <mxGeometry x="453.33333333333337" y="2050" width="26.666666666666668" height="26.666666666666668" as="geometry"/>
                </mxCell>
                <mxCell id="508" value="" style="whiteSpace=wrap;html=1;aspect=fixed;fontSize=24;fillColor=#dae8fc;container=0;strokeColor=#6c8ebf;" parent="1" vertex="1">
                    <mxGeometry x="453.33333333333337" y="2076.6666666666665" width="26.666666666666668" height="26.666666666666668" as="geometry"/>
                </mxCell>
                <mxCell id="511" value="" style="whiteSpace=wrap;html=1;aspect=fixed;fontSize=24;fillColor=#dae8fc;container=0;strokeColor=#6c8ebf;" parent="1" vertex="1">
                    <mxGeometry x="453.33333333333337" y="2103.3333333333335" width="26.666666666666668" height="26.666666666666668" as="geometry"/>
                </mxCell>
                <mxCell id="513" value="" style="whiteSpace=wrap;html=1;aspect=fixed;fontSize=24;fillColor=#f5f5f5;container=0;strokeColor=#666666;fontColor=#333333;" parent="1" vertex="1">
                    <mxGeometry x="480" y="2050" width="26.666666666666668" height="26.666666666666668" as="geometry"/>
                </mxCell>
                <mxCell id="514" value="" style="whiteSpace=wrap;html=1;aspect=fixed;fontSize=24;fillColor=#f5f5f5;container=0;strokeColor=#666666;fontColor=#333333;" parent="1" vertex="1">
                    <mxGeometry x="506.6666666666667" y="2050" width="26.666666666666668" height="26.666666666666668" as="geometry"/>
                </mxCell>
                <mxCell id="515" value="" style="whiteSpace=wrap;html=1;aspect=fixed;fontSize=24;fillColor=#f5f5f5;container=0;strokeColor=#666666;fontColor=#333333;" parent="1" vertex="1">
                    <mxGeometry x="533.3333333333333" y="2050" width="26.666666666666668" height="26.666666666666668" as="geometry"/>
                </mxCell>
                <mxCell id="516" value="" style="whiteSpace=wrap;html=1;aspect=fixed;fontSize=24;fillColor=#f5f5f5;container=0;strokeColor=#666666;fontColor=#333333;" parent="1" vertex="1">
                    <mxGeometry x="480" y="2076.6666666666665" width="26.666666666666668" height="26.666666666666668" as="geometry"/>
                </mxCell>
                <mxCell id="517" value="" style="whiteSpace=wrap;html=1;aspect=fixed;fontSize=24;fillColor=#f5f5f5;container=0;strokeColor=#666666;fontColor=#333333;" parent="1" vertex="1">
                    <mxGeometry x="506.6666666666667" y="2076.6666666666665" width="26.666666666666668" height="26.666666666666668" as="geometry"/>
                </mxCell>
                <mxCell id="518" value="" style="whiteSpace=wrap;html=1;aspect=fixed;fontSize=24;fillColor=#f5f5f5;container=0;strokeColor=#666666;fontColor=#333333;" parent="1" vertex="1">
                    <mxGeometry x="533.3333333333333" y="2076.6666666666665" width="26.666666666666668" height="26.666666666666668" as="geometry"/>
                </mxCell>
                <mxCell id="519" value="" style="whiteSpace=wrap;html=1;aspect=fixed;fontSize=24;fillColor=#f5f5f5;container=0;strokeColor=#666666;fontColor=#333333;" parent="1" vertex="1">
                    <mxGeometry x="480" y="2103.3333333333335" width="26.666666666666668" height="26.666666666666668" as="geometry"/>
                </mxCell>
                <mxCell id="520" value="" style="whiteSpace=wrap;html=1;aspect=fixed;fontSize=24;fillColor=#f5f5f5;container=0;strokeColor=#666666;fontColor=#333333;" parent="1" vertex="1">
                    <mxGeometry x="506.6666666666667" y="2103.3333333333335" width="26.666666666666668" height="26.666666666666668" as="geometry"/>
                </mxCell>
                <mxCell id="521" value="" style="whiteSpace=wrap;html=1;aspect=fixed;fontSize=24;fillColor=#f5f5f5;container=0;strokeColor=#666666;fontColor=#333333;" parent="1" vertex="1">
                    <mxGeometry x="533.3333333333333" y="2103.3333333333335" width="26.666666666666668" height="26.666666666666668" as="geometry"/>
                </mxCell>
                <mxCell id="525" value="" style="whiteSpace=wrap;html=1;aspect=fixed;fontSize=24;fillColor=#dae8fc;container=0;strokeColor=#6c8ebf;" parent="1" vertex="1">
                    <mxGeometry x="453.33333333333337" y="2130" width="26.666666666666668" height="26.666666666666668" as="geometry"/>
                </mxCell>
                <mxCell id="528" value="" style="whiteSpace=wrap;html=1;aspect=fixed;fontSize=24;fillColor=#dae8fc;container=0;strokeColor=#6c8ebf;" parent="1" vertex="1">
                    <mxGeometry x="453.33333333333337" y="2156.6666666666665" width="26.666666666666668" height="26.666666666666668" as="geometry"/>
                </mxCell>
                <mxCell id="531" value="" style="whiteSpace=wrap;html=1;aspect=fixed;fontSize=24;fillColor=#dae8fc;container=0;strokeColor=#6c8ebf;" parent="1" vertex="1">
                    <mxGeometry x="453.33333333333337" y="2183.3333333333335" width="26.666666666666668" height="26.666666666666668" as="geometry"/>
                </mxCell>
                <mxCell id="533" value="" style="whiteSpace=wrap;html=1;aspect=fixed;fontSize=24;fillColor=#f5f5f5;container=0;strokeColor=#666666;fontColor=#333333;" parent="1" vertex="1">
                    <mxGeometry x="480" y="2130" width="26.666666666666668" height="26.666666666666668" as="geometry"/>
                </mxCell>
                <mxCell id="534" value="" style="whiteSpace=wrap;html=1;aspect=fixed;fontSize=24;fillColor=#f5f5f5;container=0;strokeColor=#666666;fontColor=#333333;" parent="1" vertex="1">
                    <mxGeometry x="506.6666666666667" y="2130" width="26.666666666666668" height="26.666666666666668" as="geometry"/>
                </mxCell>
                <mxCell id="535" value="" style="whiteSpace=wrap;html=1;aspect=fixed;fontSize=24;fillColor=#f5f5f5;container=0;strokeColor=#666666;fontColor=#333333;" parent="1" vertex="1">
                    <mxGeometry x="533.3333333333333" y="2130" width="26.666666666666668" height="26.666666666666668" as="geometry"/>
                </mxCell>
                <mxCell id="536" value="" style="whiteSpace=wrap;html=1;aspect=fixed;fontSize=24;fillColor=#f5f5f5;container=0;strokeColor=#666666;fontColor=#333333;" parent="1" vertex="1">
                    <mxGeometry x="480" y="2156.6666666666665" width="26.666666666666668" height="26.666666666666668" as="geometry"/>
                </mxCell>
                <mxCell id="537" value="" style="whiteSpace=wrap;html=1;aspect=fixed;fontSize=24;fillColor=#f5f5f5;container=0;strokeColor=#666666;fontColor=#333333;" parent="1" vertex="1">
                    <mxGeometry x="506.6666666666667" y="2156.6666666666665" width="26.666666666666668" height="26.666666666666668" as="geometry"/>
                </mxCell>
                <mxCell id="538" value="" style="whiteSpace=wrap;html=1;aspect=fixed;fontSize=24;fillColor=#f5f5f5;container=0;strokeColor=#666666;fontColor=#333333;" parent="1" vertex="1">
                    <mxGeometry x="533.3333333333333" y="2156.6666666666665" width="26.666666666666668" height="26.666666666666668" as="geometry"/>
                </mxCell>
                <mxCell id="539" value="" style="whiteSpace=wrap;html=1;aspect=fixed;fontSize=24;fillColor=#f5f5f5;container=0;strokeColor=#666666;fontColor=#333333;" parent="1" vertex="1">
                    <mxGeometry x="480" y="2183.3333333333335" width="26.666666666666668" height="26.666666666666668" as="geometry"/>
                </mxCell>
                <mxCell id="540" value="" style="whiteSpace=wrap;html=1;aspect=fixed;fontSize=24;fillColor=#f5f5f5;container=0;strokeColor=#666666;fontColor=#333333;" parent="1" vertex="1">
                    <mxGeometry x="506.6666666666667" y="2183.3333333333335" width="26.666666666666668" height="26.666666666666668" as="geometry"/>
                </mxCell>
                <mxCell id="541" value="" style="whiteSpace=wrap;html=1;aspect=fixed;fontSize=24;fillColor=#f5f5f5;container=0;strokeColor=#666666;fontColor=#333333;" parent="1" vertex="1">
                    <mxGeometry x="533.3333333333333" y="2183.3333333333335" width="26.666666666666668" height="26.666666666666668" as="geometry"/>
                </mxCell>
                <mxCell id="543" value="" style="ellipse;whiteSpace=wrap;html=1;aspect=fixed;fontSize=24;fillColor=#dae8fc;strokeColor=#6c8ebf;movable=0;resizable=0;rotatable=0;deletable=0;editable=0;connectable=0;" parent="1" vertex="1">
                    <mxGeometry x="386.66666666666663" y="2090" width="26.666666666666668" height="26.666666666666668" as="geometry"/>
                </mxCell>
                <mxCell id="556" value="\(\boldsymbol{o}\)" style="text;html=1;align=center;verticalAlign=middle;resizable=1;points=[];autosize=1;strokeColor=none;fillColor=none;fontSize=24;movable=1;rotatable=1;deletable=1;editable=1;connectable=1;" parent="1" vertex="1">
                    <mxGeometry x="383.33" y="2116.67" width="30" height="30" as="geometry"/>
                </mxCell>
                <mxCell id="557" value="\(\boldsymbol{v} \in visibility(\boldsymbol{o})\)" style="text;html=1;align=center;verticalAlign=middle;resizable=1;points=[];autosize=1;strokeColor=none;fillColor=none;fontSize=24;movable=1;rotatable=1;deletable=1;editable=1;connectable=1;" parent="1" vertex="1">
                    <mxGeometry x="600" y="1916.67" width="210" height="30" as="geometry"/>
                </mxCell>
                <mxCell id="558" value="\(\boldsymbol{v} \notin visibility(\boldsymbol{o})\)" style="text;html=1;align=center;verticalAlign=middle;resizable=1;points=[];autosize=1;strokeColor=none;fillColor=none;fontSize=24;movable=1;rotatable=1;deletable=1;editable=1;connectable=1;" parent="1" vertex="1">
                    <mxGeometry x="601" y="2180" width="209" height="30" as="geometry"/>
                </mxCell>
                <mxCell id="559" value="&lt;font style=&quot;font-size: 24px&quot;&gt;&lt;b&gt;Visibility&lt;/b&gt;&lt;/font&gt;" style="text;html=1;align=center;verticalAlign=middle;resizable=0;points=[];autosize=1;strokeColor=none;fillColor=none;" parent="1" vertex="1">
                    <mxGeometry x="110" y="1819" width="110" height="20" as="geometry"/>
                </mxCell>
                <mxCell id="633" value="" style="whiteSpace=wrap;html=1;aspect=fixed;fontSize=24;fillColor=#f8cecc;container=0;strokeColor=#b85450;" parent="1" vertex="1">
                    <mxGeometry x="1065" y="1890.01" width="26.666666666666668" height="26.666666666666668" as="geometry"/>
                </mxCell>
                <mxCell id="634" value="" style="whiteSpace=wrap;html=1;aspect=fixed;fontSize=24;fillColor=#f8cecc;container=0;strokeColor=#b85450;" parent="1" vertex="1">
                    <mxGeometry x="1065" y="1916.6766666666667" width="26.666666666666668" height="26.666666666666668" as="geometry"/>
                </mxCell>
                <mxCell id="635" value="" style="whiteSpace=wrap;html=1;aspect=fixed;fontSize=24;fillColor=#f5f5f5;container=0;strokeColor=#666666;fontColor=#333333;" parent="1" vertex="1">
                    <mxGeometry x="1065" y="1943.3433333333332" width="26.666666666666668" height="26.666666666666668" as="geometry"/>
                </mxCell>
                <mxCell id="636" value="" style="whiteSpace=wrap;html=1;aspect=fixed;fontSize=24;container=0;fillColor=#dae8fc;strokeColor=#6c8ebf;" parent="1" vertex="1">
                    <mxGeometry x="1145" y="1916.6766666666667" width="26.666666666666668" height="26.666666666666668" as="geometry"/>
                </mxCell>
                <mxCell id="637" value="" style="whiteSpace=wrap;html=1;aspect=fixed;fontSize=24;fillColor=#f5f5f5;container=0;strokeColor=#666666;fontColor=#333333;" parent="1" vertex="1">
                    <mxGeometry x="1065" y="1970.01" width="26.666666666666668" height="26.666666666666668" as="geometry"/>
                </mxCell>
                <mxCell id="638" value="" style="whiteSpace=wrap;html=1;aspect=fixed;fontSize=24;fillColor=#f5f5f5;container=0;strokeColor=#666666;fontColor=#333333;" parent="1" vertex="1">
                    <mxGeometry x="1091.6666666666667" y="1970.01" width="26.666666666666668" height="26.666666666666668" as="geometry"/>
                </mxCell>
                <mxCell id="639" value="" style="whiteSpace=wrap;html=1;aspect=fixed;fontSize=24;fillColor=#e1d5e7;container=0;strokeColor=#9673a6;" parent="1" vertex="1">
                    <mxGeometry x="1118.3333333333333" y="1970.01" width="26.666666666666668" height="26.666666666666668" as="geometry"/>
                </mxCell>
                <mxCell id="640" value="" style="whiteSpace=wrap;html=1;aspect=fixed;fontSize=24;fillColor=#f5f5f5;container=0;strokeColor=#666666;fontColor=#333333;" parent="1" vertex="1">
                    <mxGeometry x="1065" y="1996.6766666666667" width="26.666666666666668" height="26.666666666666668" as="geometry"/>
                </mxCell>
                <mxCell id="641" value="" style="whiteSpace=wrap;html=1;aspect=fixed;fontSize=24;fillColor=#f5f5f5;container=0;strokeColor=#666666;fontColor=#333333;" parent="1" vertex="1">
                    <mxGeometry x="1091.6666666666667" y="1996.6766666666667" width="26.666666666666668" height="26.666666666666668" as="geometry"/>
                </mxCell>
                <mxCell id="642" value="" style="whiteSpace=wrap;html=1;aspect=fixed;fontSize=24;fillColor=#f5f5f5;container=0;strokeColor=#666666;fontColor=#333333;" parent="1" vertex="1">
                    <mxGeometry x="1118.3333333333333" y="1996.6766666666667" width="26.666666666666668" height="26.666666666666668" as="geometry"/>
                </mxCell>
                <mxCell id="643" value="" style="whiteSpace=wrap;html=1;aspect=fixed;fontSize=24;fillColor=#f5f5f5;container=0;strokeColor=#666666;fontColor=#333333;" parent="1" vertex="1">
                    <mxGeometry x="1065" y="2023.3433333333332" width="26.666666666666668" height="26.666666666666668" as="geometry"/>
                </mxCell>
                <mxCell id="644" value="" style="whiteSpace=wrap;html=1;aspect=fixed;fontSize=24;fillColor=#f5f5f5;container=0;strokeColor=#666666;fontColor=#333333;" parent="1" vertex="1">
                    <mxGeometry x="1091.6666666666667" y="2023.3433333333332" width="26.666666666666668" height="26.666666666666668" as="geometry"/>
                </mxCell>
                <mxCell id="645" value="" style="whiteSpace=wrap;html=1;aspect=fixed;fontSize=24;fillColor=#f5f5f5;container=0;strokeColor=#666666;fontColor=#333333;" parent="1" vertex="1">
                    <mxGeometry x="1118.3333333333333" y="2023.3433333333332" width="26.666666666666668" height="26.666666666666668" as="geometry"/>
                </mxCell>
                <mxCell id="646" value="" style="whiteSpace=wrap;html=1;aspect=fixed;fontSize=24;fillColor=#e1d5e7;container=0;strokeColor=#9673a6;" parent="1" vertex="1">
                    <mxGeometry x="1198.3333333333335" y="1970.01" width="26.666666666666668" height="26.666666666666668" as="geometry"/>
                </mxCell>
                <mxCell id="647" value="" style="whiteSpace=wrap;html=1;aspect=fixed;fontSize=24;fillColor=#e1d5e7;container=0;strokeColor=#9673a6;" parent="1" vertex="1">
                    <mxGeometry x="1145" y="2023.3433333333332" width="26.666666666666668" height="26.666666666666668" as="geometry"/>
                </mxCell>
                <mxCell id="648" value="" style="whiteSpace=wrap;html=1;aspect=fixed;fontSize=24;container=0;fillColor=#f5f5f5;strokeColor=#666666;fontColor=#333333;" parent="1" vertex="1">
                    <mxGeometry x="1225" y="1916.6766666666667" width="26.666666666666668" height="26.666666666666668" as="geometry"/>
                </mxCell>
                <mxCell id="649" value="" style="whiteSpace=wrap;html=1;aspect=fixed;fontSize=24;fillColor=#e1d5e7;container=0;strokeColor=#9673a6;" parent="1" vertex="1">
                    <mxGeometry x="1305" y="1916.6766666666667" width="26.666666666666668" height="26.666666666666668" as="geometry"/>
                </mxCell>
                <mxCell id="650" value="" style="whiteSpace=wrap;html=1;aspect=fixed;fontSize=24;fillColor=#e1d5e7;container=0;strokeColor=#9673a6;" parent="1" vertex="1">
                    <mxGeometry x="1225" y="1970.01" width="26.666666666666668" height="26.666666666666668" as="geometry"/>
                </mxCell>
                <mxCell id="651" value="" style="whiteSpace=wrap;html=1;aspect=fixed;fontSize=24;fillColor=#e1d5e7;container=0;strokeColor=#9673a6;" parent="1" vertex="1">
                    <mxGeometry x="1251.6666666666665" y="1970.01" width="26.666666666666668" height="26.666666666666668" as="geometry"/>
                </mxCell>
                <mxCell id="652" value="" style="whiteSpace=wrap;html=1;aspect=fixed;fontSize=24;fillColor=#e1d5e7;container=0;strokeColor=#9673a6;" parent="1" vertex="1">
                    <mxGeometry x="1278.3333333333335" y="2023.3433333333332" width="26.666666666666668" height="26.666666666666668" as="geometry"/>
                </mxCell>
                <mxCell id="653" value="" style="whiteSpace=wrap;html=1;aspect=fixed;fontSize=24;fillColor=#f5f5f5;container=0;strokeColor=#666666;fontColor=#333333;" parent="1" vertex="1">
                    <mxGeometry x="1305" y="2023.3433333333332" width="26.666666666666668" height="26.666666666666668" as="geometry"/>
                </mxCell>
                <mxCell id="654" value="" style="whiteSpace=wrap;html=1;aspect=fixed;fontSize=24;fillColor=#f5f5f5;container=0;strokeColor=#666666;fontColor=#333333;" parent="1" vertex="1">
                    <mxGeometry x="1331.6666666666667" y="2023.3433333333332" width="26.666666666666668" height="26.666666666666668" as="geometry"/>
                </mxCell>
                <mxCell id="655" value="" style="whiteSpace=wrap;html=1;aspect=fixed;fontSize=24;fillColor=#f5f5f5;container=0;strokeColor=#666666;fontColor=#333333;" parent="1" vertex="1">
                    <mxGeometry x="1358.3333333333333" y="2023.3433333333332" width="26.666666666666668" height="26.666666666666668" as="geometry"/>
                </mxCell>
                <mxCell id="656" value="" style="whiteSpace=wrap;html=1;aspect=fixed;fontSize=24;fillColor=#f5f5f5;container=0;strokeColor=#666666;fontColor=#333333;" parent="1" vertex="1">
                    <mxGeometry x="1065" y="2050.01" width="26.666666666666668" height="26.666666666666668" as="geometry"/>
                </mxCell>
                <mxCell id="657" value="" style="whiteSpace=wrap;html=1;aspect=fixed;fontSize=24;fillColor=#f5f5f5;container=0;strokeColor=#666666;fontColor=#333333;" parent="1" vertex="1">
                    <mxGeometry x="1091.6666666666667" y="2050.01" width="26.666666666666668" height="26.666666666666668" as="geometry"/>
                </mxCell>
                <mxCell id="658" value="" style="whiteSpace=wrap;html=1;aspect=fixed;fontSize=24;fillColor=#f5f5f5;container=0;strokeColor=#666666;fontColor=#333333;" parent="1" vertex="1">
                    <mxGeometry x="1118.3333333333333" y="2050.01" width="26.666666666666668" height="26.666666666666668" as="geometry"/>
                </mxCell>
                <mxCell id="659" value="" style="whiteSpace=wrap;html=1;aspect=fixed;fontSize=24;fillColor=#f5f5f5;container=0;strokeColor=#666666;fontColor=#333333;" parent="1" vertex="1">
                    <mxGeometry x="1065" y="2076.6766666666667" width="26.666666666666668" height="26.666666666666668" as="geometry"/>
                </mxCell>
                <mxCell id="660" value="" style="whiteSpace=wrap;html=1;aspect=fixed;fontSize=24;fillColor=#f5f5f5;container=0;strokeColor=#666666;fontColor=#333333;" parent="1" vertex="1">
                    <mxGeometry x="1091.6666666666667" y="2076.6766666666667" width="26.666666666666668" height="26.666666666666668" as="geometry"/>
                </mxCell>
                <mxCell id="661" value="" style="whiteSpace=wrap;html=1;aspect=fixed;fontSize=24;fillColor=#f5f5f5;container=0;strokeColor=#666666;fontColor=#333333;" parent="1" vertex="1">
                    <mxGeometry x="1118.3333333333333" y="2076.6766666666667" width="26.666666666666668" height="26.666666666666668" as="geometry"/>
                </mxCell>
                <mxCell id="662" value="" style="whiteSpace=wrap;html=1;aspect=fixed;fontSize=24;fillColor=#f5f5f5;container=0;strokeColor=#666666;fontColor=#333333;" parent="1" vertex="1">
                    <mxGeometry x="1065" y="2103.3433333333337" width="26.666666666666668" height="26.666666666666668" as="geometry"/>
                </mxCell>
                <mxCell id="663" value="" style="whiteSpace=wrap;html=1;aspect=fixed;fontSize=24;fillColor=#f5f5f5;container=0;strokeColor=#666666;fontColor=#333333;" parent="1" vertex="1">
                    <mxGeometry x="1091.6666666666667" y="2103.3433333333337" width="26.666666666666668" height="26.666666666666668" as="geometry"/>
                </mxCell>
                <mxCell id="664" value="" style="whiteSpace=wrap;html=1;aspect=fixed;fontSize=24;fillColor=#f5f5f5;container=0;strokeColor=#666666;fontColor=#333333;" parent="1" vertex="1">
                    <mxGeometry x="1118.3333333333333" y="2103.3433333333337" width="26.666666666666668" height="26.666666666666668" as="geometry"/>
                </mxCell>
                <mxCell id="665" value="" style="whiteSpace=wrap;html=1;aspect=fixed;fontSize=24;fillColor=#e1d5e7;container=0;strokeColor=#9673a6;" parent="1" vertex="1">
                    <mxGeometry x="1145" y="2050.01" width="26.666666666666668" height="26.666666666666668" as="geometry"/>
                </mxCell>
                <mxCell id="666" value="" style="whiteSpace=wrap;html=1;aspect=fixed;fontSize=24;fillColor=#e1d5e7;container=0;strokeColor=#9673a6;" parent="1" vertex="1">
                    <mxGeometry x="1145" y="2076.6766666666667" width="26.666666666666668" height="26.666666666666668" as="geometry"/>
                </mxCell>
                <mxCell id="667" value="" style="whiteSpace=wrap;html=1;aspect=fixed;fontSize=24;fillColor=#e1d5e7;container=0;strokeColor=#9673a6;" parent="1" vertex="1">
                    <mxGeometry x="1145" y="2103.3433333333337" width="26.666666666666668" height="26.666666666666668" as="geometry"/>
                </mxCell>
                <mxCell id="668" value="" style="whiteSpace=wrap;html=1;aspect=fixed;fontSize=24;fillColor=#f5f5f5;container=0;strokeColor=#666666;fontColor=#333333;" parent="1" vertex="1">
                    <mxGeometry x="1065" y="2130.01" width="26.666666666666668" height="26.666666666666668" as="geometry"/>
                </mxCell>
                <mxCell id="669" value="" style="whiteSpace=wrap;html=1;aspect=fixed;fontSize=24;fillColor=#f5f5f5;container=0;strokeColor=#666666;fontColor=#333333;" parent="1" vertex="1">
                    <mxGeometry x="1091.6666666666667" y="2130.01" width="26.666666666666668" height="26.666666666666668" as="geometry"/>
                </mxCell>
                <mxCell id="670" value="" style="whiteSpace=wrap;html=1;aspect=fixed;fontSize=24;fillColor=#f5f5f5;container=0;strokeColor=#666666;fontColor=#333333;" parent="1" vertex="1">
                    <mxGeometry x="1118.3333333333333" y="2130.01" width="26.666666666666668" height="26.666666666666668" as="geometry"/>
                </mxCell>
                <mxCell id="671" value="" style="whiteSpace=wrap;html=1;aspect=fixed;fontSize=24;fillColor=#f5f5f5;container=0;strokeColor=#666666;fontColor=#333333;" parent="1" vertex="1">
                    <mxGeometry x="1065" y="2156.6766666666667" width="26.666666666666668" height="26.666666666666668" as="geometry"/>
                </mxCell>
                <mxCell id="672" value="" style="whiteSpace=wrap;html=1;aspect=fixed;fontSize=24;fillColor=#f5f5f5;container=0;strokeColor=#666666;fontColor=#333333;" parent="1" vertex="1">
                    <mxGeometry x="1091.6666666666667" y="2156.6766666666667" width="26.666666666666668" height="26.666666666666668" as="geometry"/>
                </mxCell>
                <mxCell id="673" value="" style="whiteSpace=wrap;html=1;aspect=fixed;fontSize=24;fillColor=#f5f5f5;container=0;strokeColor=#666666;fontColor=#333333;" parent="1" vertex="1">
                    <mxGeometry x="1118.3333333333333" y="2156.6766666666667" width="26.666666666666668" height="26.666666666666668" as="geometry"/>
                </mxCell>
                <mxCell id="674" value="" style="whiteSpace=wrap;html=1;aspect=fixed;fontSize=24;fillColor=#f5f5f5;container=0;strokeColor=#666666;fontColor=#333333;" parent="1" vertex="1">
                    <mxGeometry x="1065" y="2183.3433333333337" width="26.666666666666668" height="26.666666666666668" as="geometry"/>
                </mxCell>
                <mxCell id="675" value="" style="whiteSpace=wrap;html=1;aspect=fixed;fontSize=24;fillColor=#f5f5f5;container=0;strokeColor=#666666;fontColor=#333333;" parent="1" vertex="1">
                    <mxGeometry x="1091.6666666666667" y="2183.3433333333337" width="26.666666666666668" height="26.666666666666668" as="geometry"/>
                </mxCell>
                <mxCell id="676" value="" style="whiteSpace=wrap;html=1;aspect=fixed;fontSize=24;fillColor=#f5f5f5;container=0;strokeColor=#666666;fontColor=#333333;" parent="1" vertex="1">
                    <mxGeometry x="1118.3333333333333" y="2183.3433333333337" width="26.666666666666668" height="26.666666666666668" as="geometry"/>
                </mxCell>
                <mxCell id="677" value="" style="whiteSpace=wrap;html=1;aspect=fixed;fontSize=24;fillColor=#e1d5e7;container=0;strokeColor=#9673a6;" parent="1" vertex="1">
                    <mxGeometry x="1145" y="2130.01" width="26.666666666666668" height="26.666666666666668" as="geometry"/>
                </mxCell>
                <mxCell id="678" value="" style="whiteSpace=wrap;html=1;aspect=fixed;fontSize=24;fillColor=#e1d5e7;container=0;strokeColor=#9673a6;" parent="1" vertex="1">
                    <mxGeometry x="1145" y="2156.6766666666667" width="26.666666666666668" height="26.666666666666668" as="geometry"/>
                </mxCell>
                <mxCell id="679" value="" style="whiteSpace=wrap;html=1;aspect=fixed;fontSize=24;fillColor=#e1d5e7;container=0;strokeColor=#9673a6;" parent="1" vertex="1">
                    <mxGeometry x="1145" y="2183.3433333333337" width="26.666666666666668" height="26.666666666666668" as="geometry"/>
                </mxCell>
                <mxCell id="680" value="" style="whiteSpace=wrap;html=1;aspect=fixed;fontSize=24;fillColor=#e1d5e7;container=0;strokeColor=#9673a6;" parent="1" vertex="1">
                    <mxGeometry x="1278.3333333333335" y="2050.01" width="26.666666666666668" height="26.666666666666668" as="geometry"/>
                </mxCell>
                <mxCell id="681" value="" style="whiteSpace=wrap;html=1;aspect=fixed;fontSize=24;fillColor=#e1d5e7;container=0;strokeColor=#9673a6;" parent="1" vertex="1">
                    <mxGeometry x="1278.33" y="2073.34" width="30" height="30" as="geometry"/>
                </mxCell>
                <mxCell id="682" value="" style="whiteSpace=wrap;html=1;aspect=fixed;fontSize=24;fillColor=#e1d5e7;container=0;strokeColor=#9673a6;" parent="1" vertex="1">
                    <mxGeometry x="1278.3333333333335" y="2103.3433333333337" width="26.666666666666668" height="26.666666666666668" as="geometry"/>
                </mxCell>
                <mxCell id="683" value="" style="whiteSpace=wrap;html=1;aspect=fixed;fontSize=24;fillColor=#f5f5f5;container=0;strokeColor=#666666;fontColor=#333333;" parent="1" vertex="1">
                    <mxGeometry x="1305" y="2050.01" width="26.666666666666668" height="26.666666666666668" as="geometry"/>
                </mxCell>
                <mxCell id="684" value="" style="whiteSpace=wrap;html=1;aspect=fixed;fontSize=24;fillColor=#f5f5f5;container=0;strokeColor=#666666;fontColor=#333333;" parent="1" vertex="1">
                    <mxGeometry x="1331.6666666666667" y="2050.01" width="26.666666666666668" height="26.666666666666668" as="geometry"/>
                </mxCell>
                <mxCell id="685" value="" style="whiteSpace=wrap;html=1;aspect=fixed;fontSize=24;fillColor=#f5f5f5;container=0;strokeColor=#666666;fontColor=#333333;" parent="1" vertex="1">
                    <mxGeometry x="1358.3333333333333" y="2050.01" width="26.666666666666668" height="26.666666666666668" as="geometry"/>
                </mxCell>
                <mxCell id="686" value="" style="whiteSpace=wrap;html=1;aspect=fixed;fontSize=24;fillColor=#f5f5f5;container=0;strokeColor=#666666;fontColor=#333333;" parent="1" vertex="1">
                    <mxGeometry x="1305" y="2076.6766666666667" width="26.666666666666668" height="26.666666666666668" as="geometry"/>
                </mxCell>
                <mxCell id="687" value="" style="whiteSpace=wrap;html=1;aspect=fixed;fontSize=24;fillColor=#f5f5f5;container=0;strokeColor=#666666;fontColor=#333333;" parent="1" vertex="1">
                    <mxGeometry x="1331.6666666666667" y="2076.6766666666667" width="26.666666666666668" height="26.666666666666668" as="geometry"/>
                </mxCell>
                <mxCell id="688" value="" style="whiteSpace=wrap;html=1;aspect=fixed;fontSize=24;fillColor=#f5f5f5;container=0;strokeColor=#666666;fontColor=#333333;" parent="1" vertex="1">
                    <mxGeometry x="1358.3333333333333" y="2076.6766666666667" width="26.666666666666668" height="26.666666666666668" as="geometry"/>
                </mxCell>
                <mxCell id="689" value="" style="whiteSpace=wrap;html=1;aspect=fixed;fontSize=24;fillColor=#f5f5f5;container=0;strokeColor=#666666;fontColor=#333333;" parent="1" vertex="1">
                    <mxGeometry x="1305" y="2103.3433333333337" width="26.666666666666668" height="26.666666666666668" as="geometry"/>
                </mxCell>
                <mxCell id="690" value="" style="whiteSpace=wrap;html=1;aspect=fixed;fontSize=24;fillColor=#f5f5f5;container=0;strokeColor=#666666;fontColor=#333333;" parent="1" vertex="1">
                    <mxGeometry x="1331.6666666666667" y="2103.3433333333337" width="26.666666666666668" height="26.666666666666668" as="geometry"/>
                </mxCell>
                <mxCell id="691" value="" style="whiteSpace=wrap;html=1;aspect=fixed;fontSize=24;fillColor=#f5f5f5;container=0;strokeColor=#666666;fontColor=#333333;" parent="1" vertex="1">
                    <mxGeometry x="1358.3333333333333" y="2103.3433333333337" width="26.666666666666668" height="26.666666666666668" as="geometry"/>
                </mxCell>
                <mxCell id="692" value="" style="whiteSpace=wrap;html=1;aspect=fixed;fontSize=24;fillColor=#e1d5e7;container=0;strokeColor=#9673a6;" parent="1" vertex="1">
                    <mxGeometry x="1278.3333333333335" y="2130.01" width="26.666666666666668" height="26.666666666666668" as="geometry"/>
                </mxCell>
                <mxCell id="693" value="" style="whiteSpace=wrap;html=1;aspect=fixed;fontSize=24;fillColor=#e1d5e7;container=0;strokeColor=#9673a6;" parent="1" vertex="1">
                    <mxGeometry x="1278.3333333333335" y="2156.6766666666667" width="26.666666666666668" height="26.666666666666668" as="geometry"/>
                </mxCell>
                <mxCell id="694" value="" style="whiteSpace=wrap;html=1;aspect=fixed;fontSize=24;fillColor=#e1d5e7;container=0;strokeColor=#9673a6;" parent="1" vertex="1">
                    <mxGeometry x="1278.3333333333335" y="2183.3433333333337" width="26.666666666666668" height="26.666666666666668" as="geometry"/>
                </mxCell>
                <mxCell id="695" value="" style="whiteSpace=wrap;html=1;aspect=fixed;fontSize=24;fillColor=#f5f5f5;container=0;strokeColor=#666666;fontColor=#333333;" parent="1" vertex="1">
                    <mxGeometry x="1305" y="2130.01" width="26.666666666666668" height="26.666666666666668" as="geometry"/>
                </mxCell>
                <mxCell id="696" value="" style="whiteSpace=wrap;html=1;aspect=fixed;fontSize=24;fillColor=#f5f5f5;container=0;strokeColor=#666666;fontColor=#333333;" parent="1" vertex="1">
                    <mxGeometry x="1331.6666666666667" y="2130.01" width="26.666666666666668" height="26.666666666666668" as="geometry"/>
                </mxCell>
                <mxCell id="697" value="" style="whiteSpace=wrap;html=1;aspect=fixed;fontSize=24;fillColor=#f5f5f5;container=0;strokeColor=#666666;fontColor=#333333;" parent="1" vertex="1">
                    <mxGeometry x="1358.3333333333333" y="2130.01" width="26.666666666666668" height="26.666666666666668" as="geometry"/>
                </mxCell>
                <mxCell id="698" value="" style="whiteSpace=wrap;html=1;aspect=fixed;fontSize=24;fillColor=#f5f5f5;container=0;strokeColor=#666666;fontColor=#333333;" parent="1" vertex="1">
                    <mxGeometry x="1305" y="2156.6766666666667" width="26.666666666666668" height="26.666666666666668" as="geometry"/>
                </mxCell>
                <mxCell id="699" value="" style="whiteSpace=wrap;html=1;aspect=fixed;fontSize=24;fillColor=#f5f5f5;container=0;strokeColor=#666666;fontColor=#333333;" parent="1" vertex="1">
                    <mxGeometry x="1331.6666666666667" y="2156.6766666666667" width="26.666666666666668" height="26.666666666666668" as="geometry"/>
                </mxCell>
                <mxCell id="700" value="" style="whiteSpace=wrap;html=1;aspect=fixed;fontSize=24;fillColor=#f5f5f5;container=0;strokeColor=#666666;fontColor=#333333;" parent="1" vertex="1">
                    <mxGeometry x="1358.3333333333333" y="2156.6766666666667" width="26.666666666666668" height="26.666666666666668" as="geometry"/>
                </mxCell>
                <mxCell id="701" value="" style="whiteSpace=wrap;html=1;aspect=fixed;fontSize=24;fillColor=#f5f5f5;container=0;strokeColor=#666666;fontColor=#333333;" parent="1" vertex="1">
                    <mxGeometry x="1305" y="2183.3433333333337" width="26.666666666666668" height="26.666666666666668" as="geometry"/>
                </mxCell>
                <mxCell id="702" value="" style="whiteSpace=wrap;html=1;aspect=fixed;fontSize=24;fillColor=#f5f5f5;container=0;strokeColor=#666666;fontColor=#333333;" parent="1" vertex="1">
                    <mxGeometry x="1331.6666666666667" y="2183.3433333333337" width="26.666666666666668" height="26.666666666666668" as="geometry"/>
                </mxCell>
                <mxCell id="703" value="" style="whiteSpace=wrap;html=1;aspect=fixed;fontSize=24;fillColor=#f5f5f5;container=0;strokeColor=#666666;fontColor=#333333;" parent="1" vertex="1">
                    <mxGeometry x="1358.3333333333333" y="2183.3433333333337" width="26.666666666666668" height="26.666666666666668" as="geometry"/>
                </mxCell>
                <mxCell id="704" value="" style="ellipse;whiteSpace=wrap;html=1;aspect=fixed;fontSize=24;fillColor=#dae8fc;strokeColor=#6c8ebf;movable=1;resizable=1;rotatable=1;deletable=1;editable=1;connectable=1;" parent="1" vertex="1">
                    <mxGeometry x="1211.6666666666665" y="2090.01" width="26.666666666666668" height="26.666666666666668" as="geometry"/>
                </mxCell>
                <mxCell id="705" value="\(\boldsymbol{o_a}\)" style="text;html=1;align=center;verticalAlign=middle;resizable=1;points=[];autosize=1;strokeColor=none;fillColor=none;fontSize=24;movable=1;rotatable=1;deletable=1;editable=1;connectable=1;" parent="1" vertex="1">
                    <mxGeometry x="1118.33" y="2116.6800000000003" width="230" height="30" as="geometry"/>
                </mxCell>
                <mxCell id="706" value="" style="ellipse;whiteSpace=wrap;html=1;aspect=fixed;fontSize=24;fillColor=#f8cecc;strokeColor=#b85450;movable=1;resizable=1;rotatable=1;deletable=1;editable=1;connectable=1;" parent="1" vertex="1">
                    <mxGeometry x="1238.3366666666666" y="2036.67" width="26.666666666666668" height="26.666666666666668" as="geometry"/>
                </mxCell>
                <mxCell id="713" value="\(\boldsymbol{o_b}\)" style="text;html=1;align=center;verticalAlign=middle;resizable=1;points=[];autosize=1;strokeColor=none;fillColor=none;fontSize=24;movable=1;rotatable=1;deletable=1;editable=1;connectable=1;" parent="1" vertex="1">
                    <mxGeometry x="1238.34" y="2000.6799999999998" width="31" height="30" as="geometry"/>
                </mxCell>
                <mxCell id="714" value="\(covisibility(o_a, o_b)=visibility(o_a) \cup visibility(o_b)\)" style="text;html=1;align=center;verticalAlign=middle;resizable=0;points=[];autosize=1;strokeColor=none;fillColor=none;fontSize=24;" parent="1" vertex="1">
                    <mxGeometry x="944" y="2270" width="610" height="30" as="geometry"/>
                </mxCell>
                <mxCell id="715" value="\(similarity(o_a, o_b)=\frac{covisibility(o_a, o_b)}{min \{|o_a|,|o_b|\}}\)" style="text;html=1;align=center;verticalAlign=middle;resizable=0;points=[];autosize=1;strokeColor=none;fillColor=none;fontSize=24;" parent="1" vertex="1">
                    <mxGeometry x="788.33" y="2338" width="740" height="30" as="geometry"/>
                </mxCell>
                <mxCell id="717" value="" style="shape=cube;whiteSpace=wrap;html=1;boundedLbl=1;backgroundOutline=1;darkOpacity=0.05;darkOpacity2=0.1;size=20;movable=1;resizable=1;rotatable=1;deletable=1;editable=1;connectable=1;fillColor=default;" parent="1" vertex="1">
                    <mxGeometry x="947.66" y="221" width="70" height="70" as="geometry"/>
                </mxCell>
                <mxCell id="718" value="" style="shape=cube;whiteSpace=wrap;html=1;boundedLbl=1;backgroundOutline=1;darkOpacity=0.05;darkOpacity2=0.1;size=20;movable=1;resizable=1;rotatable=1;deletable=1;editable=1;connectable=1;fillColor=default;" parent="1" vertex="1">
                    <mxGeometry x="897.66" y="271" width="70" height="70" as="geometry"/>
                </mxCell>
                <mxCell id="720" value="" style="shape=cube;whiteSpace=wrap;html=1;boundedLbl=1;backgroundOutline=1;darkOpacity=0.05;darkOpacity2=0.1;size=20;movable=1;resizable=1;rotatable=1;deletable=1;editable=1;connectable=1;fillColor=default;" parent="1" vertex="1">
                    <mxGeometry x="967.6599999999999" y="291" width="70" height="70" as="geometry"/>
                </mxCell>
                <mxCell id="725" value="" style="shape=cube;whiteSpace=wrap;html=1;boundedLbl=1;backgroundOutline=1;darkOpacity=0.05;darkOpacity2=0.1;size=20;movable=1;resizable=1;rotatable=1;deletable=1;editable=1;connectable=1;fillColor=default;" parent="1" vertex="1">
                    <mxGeometry x="1246.4" y="231" width="70" height="70" as="geometry"/>
                </mxCell>
                <mxCell id="726" value="" style="shape=cube;whiteSpace=wrap;html=1;boundedLbl=1;backgroundOutline=1;darkOpacity=0.05;darkOpacity2=0.1;size=20;movable=1;resizable=1;rotatable=1;deletable=1;editable=1;connectable=1;fillColor=#f8cecc;strokeColor=#b85450;" parent="1" vertex="1">
                    <mxGeometry x="1266.4" y="251" width="70" height="70" as="geometry"/>
                </mxCell>
                <mxCell id="729" value="" style="shape=cube;whiteSpace=wrap;html=1;boundedLbl=1;backgroundOutline=1;darkOpacity=0.05;darkOpacity2=0.1;size=20;movable=1;resizable=1;rotatable=1;deletable=1;editable=1;connectable=1;fillColor=none;" parent="1" vertex="1">
                    <mxGeometry x="1266.4" y="251" width="70" height="70" as="geometry"/>
                </mxCell>
                <mxCell id="732" value="" style="shape=cube;whiteSpace=wrap;html=1;boundedLbl=1;backgroundOutline=1;darkOpacity=0.05;darkOpacity2=0.1;size=20;movable=1;resizable=1;rotatable=1;deletable=1;editable=1;connectable=1;fillColor=default;" parent="1" vertex="1">
                    <mxGeometry x="1286.4" y="271" width="70" height="70" as="geometry"/>
                </mxCell>
                <mxCell id="733" value="" style="shape=cube;whiteSpace=wrap;html=1;boundedLbl=1;backgroundOutline=1;darkOpacity=0.05;darkOpacity2=0.1;size=20;movable=1;resizable=1;rotatable=1;deletable=1;editable=1;connectable=1;fillColor=default;" parent="1" vertex="1">
                    <mxGeometry x="1286.4" y="221" width="70" height="70" as="geometry"/>
                </mxCell>
                <mxCell id="736" value="" style="shape=cube;whiteSpace=wrap;html=1;boundedLbl=1;backgroundOutline=1;darkOpacity=0.05;darkOpacity2=0.1;size=20;movable=1;resizable=1;rotatable=1;deletable=1;editable=1;connectable=1;fillColor=default;" parent="1" vertex="1">
                    <mxGeometry x="1236.91" y="321" width="70" height="70" as="geometry"/>
                </mxCell>
                <mxCell id="737" value="" style="shape=cube;whiteSpace=wrap;html=1;boundedLbl=1;backgroundOutline=1;darkOpacity=0.05;darkOpacity2=0.1;size=20;movable=1;resizable=1;rotatable=1;deletable=1;editable=1;connectable=1;fillColor=default;" parent="1" vertex="1">
                    <mxGeometry x="1236.91" y="271" width="70" height="70" as="geometry"/>
                </mxCell>
                <mxCell id="738" value="" style="shape=cube;whiteSpace=wrap;html=1;boundedLbl=1;backgroundOutline=1;darkOpacity=0.05;darkOpacity2=0.1;size=20;movable=1;resizable=1;rotatable=1;deletable=1;editable=1;connectable=1;fillColor=default;" parent="1" vertex="1">
                    <mxGeometry x="1236.91" y="221" width="70" height="70" as="geometry"/>
                </mxCell>
                <mxCell id="760" value="" style="shape=cube;whiteSpace=wrap;html=1;boundedLbl=1;backgroundOutline=1;darkOpacity=0.05;darkOpacity2=0.1;size=20;movable=1;resizable=1;rotatable=1;deletable=1;editable=1;connectable=1;fillColor=default;" parent="1" vertex="1">
                    <mxGeometry x="1355.89" y="341" width="70" height="70" as="geometry"/>
                </mxCell>
                <mxCell id="761" value="" style="shape=cube;whiteSpace=wrap;html=1;boundedLbl=1;backgroundOutline=1;darkOpacity=0.05;darkOpacity2=0.1;size=20;movable=1;resizable=1;rotatable=1;deletable=1;editable=1;connectable=1;fillColor=default;" parent="1" vertex="1">
                    <mxGeometry x="1355.89" y="291" width="70" height="70" as="geometry"/>
                </mxCell>
                <mxCell id="762" value="" style="shape=cube;whiteSpace=wrap;html=1;boundedLbl=1;backgroundOutline=1;darkOpacity=0.05;darkOpacity2=0.1;size=20;movable=1;resizable=1;rotatable=1;deletable=1;editable=1;connectable=1;fillColor=default;" parent="1" vertex="1">
                    <mxGeometry x="1355.89" y="241" width="70" height="70" as="geometry"/>
                </mxCell>
                <mxCell id="763" value="" style="shape=cube;whiteSpace=wrap;html=1;boundedLbl=1;backgroundOutline=1;darkOpacity=0.05;darkOpacity2=0.1;size=20;movable=1;resizable=1;rotatable=1;deletable=1;editable=1;connectable=1;fillColor=default;" parent="1" vertex="1">
                    <mxGeometry x="1285.89" y="321" width="70" height="70" as="geometry"/>
                </mxCell>
                <mxCell id="764" value="" style="edgeStyle=none;html=1;fontSize=24;strokeColor=#999999;" parent="1" source="765" edge="1">
                    <mxGeometry relative="1" as="geometry">
                        <mxPoint x="1305.89" y="341" as="targetPoint"/>
                    </mxGeometry>
                </mxCell>
                <mxCell id="765" value="" style="shape=cube;whiteSpace=wrap;html=1;boundedLbl=1;backgroundOutline=1;darkOpacity=0.05;darkOpacity2=0.1;size=20;movable=1;resizable=1;rotatable=1;deletable=1;editable=1;connectable=1;fillColor=default;" parent="1" vertex="1">
                    <mxGeometry x="1305.89" y="341" width="70" height="70" as="geometry"/>
                </mxCell>
                <mxCell id="766" value="" style="shape=cube;whiteSpace=wrap;html=1;boundedLbl=1;backgroundOutline=1;darkOpacity=0.05;darkOpacity2=0.1;size=20;movable=1;resizable=1;rotatable=1;deletable=1;editable=1;connectable=1;fillColor=default;" parent="1" vertex="1">
                    <mxGeometry x="1265.89" y="251" width="70" height="70" as="geometry"/>
                </mxCell>
                <mxCell id="767" value="" style="shape=cube;whiteSpace=wrap;html=1;boundedLbl=1;backgroundOutline=1;darkOpacity=0.05;darkOpacity2=0.1;size=20;movable=1;resizable=1;rotatable=1;deletable=1;editable=1;connectable=1;fillColor=#f8cecc;strokeColor=#b85450;" parent="1" vertex="1">
                    <mxGeometry x="1285.89" y="271" width="70" height="70" as="geometry"/>
                </mxCell>
                <mxCell id="768" value="" style="shape=cube;whiteSpace=wrap;html=1;boundedLbl=1;backgroundOutline=1;darkOpacity=0.05;darkOpacity2=0.1;size=20;movable=1;resizable=1;rotatable=1;deletable=1;editable=1;connectable=1;fillColor=none;" parent="1" vertex="1">
                    <mxGeometry x="1285.89" y="271" width="70" height="70" as="geometry"/>
                </mxCell>
                <mxCell id="769" value="" style="shape=cube;whiteSpace=wrap;html=1;boundedLbl=1;backgroundOutline=1;darkOpacity=0.05;darkOpacity2=0.1;size=20;movable=1;resizable=1;rotatable=1;deletable=1;editable=1;connectable=1;fillColor=default;" parent="1" vertex="1">
                    <mxGeometry x="1305.89" y="291" width="70" height="70" as="geometry"/>
                </mxCell>
                <mxCell id="770" value="" style="shape=cube;whiteSpace=wrap;html=1;boundedLbl=1;backgroundOutline=1;darkOpacity=0.05;darkOpacity2=0.1;size=20;movable=1;resizable=1;rotatable=1;deletable=1;editable=1;connectable=1;fillColor=default;" parent="1" vertex="1">
                    <mxGeometry x="1305.89" y="241" width="70" height="70" as="geometry"/>
                </mxCell>
                <mxCell id="771" value="" style="shape=cube;whiteSpace=wrap;html=1;boundedLbl=1;backgroundOutline=1;darkOpacity=0.05;darkOpacity2=0.1;size=20;movable=1;resizable=1;rotatable=1;deletable=1;editable=1;connectable=1;fillColor=default;" parent="1" vertex="1">
                    <mxGeometry x="1256.4" y="341" width="70" height="70" as="geometry"/>
                </mxCell>
                <mxCell id="772" value="" style="shape=cube;whiteSpace=wrap;html=1;boundedLbl=1;backgroundOutline=1;darkOpacity=0.05;darkOpacity2=0.1;size=20;movable=1;resizable=1;rotatable=1;deletable=1;editable=1;connectable=1;fillColor=default;" parent="1" vertex="1">
                    <mxGeometry x="1256.4" y="291" width="70" height="70" as="geometry"/>
                </mxCell>
                <mxCell id="773" value="" style="shape=cube;whiteSpace=wrap;html=1;boundedLbl=1;backgroundOutline=1;darkOpacity=0.05;darkOpacity2=0.1;size=20;movable=1;resizable=1;rotatable=1;deletable=1;editable=1;connectable=1;fillColor=default;" parent="1" vertex="1">
                    <mxGeometry x="1256.4" y="241" width="70" height="70" as="geometry"/>
                </mxCell>
                <mxCell id="805" value="&lt;b&gt;Von Neumann Neighbourhood&lt;/b&gt;&lt;br&gt;&lt;font style=&quot;font-size: 16px&quot;&gt;Manhattan distance = 1&lt;/font&gt;" style="text;html=1;strokeColor=none;fillColor=none;align=center;verticalAlign=middle;whiteSpace=wrap;rounded=0;fontSize=24;fontStyle=0" parent="1" vertex="1">
                    <mxGeometry x="876.66" y="439" width="220" height="150" as="geometry"/>
                </mxCell>
                <mxCell id="806" value="&lt;b&gt;Moore Neighbourhood&lt;/b&gt;&lt;br&gt;&lt;font style=&quot;font-size: 16px&quot;&gt;Chebyshev distance = 1&lt;/font&gt;" style="text;html=1;strokeColor=none;fillColor=none;align=center;verticalAlign=middle;whiteSpace=wrap;rounded=0;fontSize=24;fontStyle=0" parent="1" vertex="1">
                    <mxGeometry x="1220" y="439" width="220" height="148" as="geometry"/>
                </mxCell>
                <mxCell id="807" value="&lt;span style=&quot;font-size: 24px&quot;&gt;Voxel Neighbourhood&lt;/span&gt;" style="text;html=1;align=center;verticalAlign=middle;resizable=0;points=[];autosize=1;strokeColor=none;fillColor=none;fontStyle=1;movable=0;rotatable=0;deletable=0;editable=0;connectable=0;" parent="1" vertex="1">
                    <mxGeometry x="715" y="130" width="260" height="20" as="geometry"/>
                </mxCell>
                <mxCell id="809" value="" style="rounded=0;whiteSpace=wrap;html=1;fontSize=16;" vertex="1" parent="1">
                    <mxGeometry x="260" y="2400" width="40" height="40" as="geometry"/>
                </mxCell>
                <mxCell id="810" value="" style="rounded=0;whiteSpace=wrap;html=1;fontSize=16;" vertex="1" parent="1">
                    <mxGeometry x="300" y="2400" width="40" height="40" as="geometry"/>
                </mxCell>
                <mxCell id="811" value="" style="rounded=0;whiteSpace=wrap;html=1;fontSize=16;" vertex="1" parent="1">
                    <mxGeometry x="340" y="2400" width="40" height="40" as="geometry"/>
                </mxCell>
                <mxCell id="812" value="" style="rounded=0;whiteSpace=wrap;html=1;fontSize=16;" vertex="1" parent="1">
                    <mxGeometry x="380" y="2400" width="40" height="40" as="geometry"/>
                </mxCell>
                <mxCell id="813" value="" style="rounded=0;whiteSpace=wrap;html=1;fontSize=16;fillColor=#f8cecc;strokeColor=#b85450;" vertex="1" parent="1">
                    <mxGeometry x="420" y="2400" width="40" height="40" as="geometry"/>
                </mxCell>
                <mxCell id="814" value="" style="rounded=0;whiteSpace=wrap;html=1;fontSize=16;" vertex="1" parent="1">
                    <mxGeometry x="260" y="2440" width="40" height="40" as="geometry"/>
                </mxCell>
                <mxCell id="815" value="" style="rounded=0;whiteSpace=wrap;html=1;fontSize=16;" vertex="1" parent="1">
                    <mxGeometry x="300" y="2440" width="40" height="40" as="geometry"/>
                </mxCell>
                <mxCell id="816" value="" style="rounded=0;whiteSpace=wrap;html=1;fontSize=16;" vertex="1" parent="1">
                    <mxGeometry x="340" y="2440" width="40" height="40" as="geometry"/>
                </mxCell>
                <mxCell id="817" value="" style="rounded=0;whiteSpace=wrap;html=1;fontSize=16;fillColor=#f8cecc;strokeColor=#b85450;" vertex="1" parent="1">
                    <mxGeometry x="380" y="2440" width="40" height="40" as="geometry"/>
                </mxCell>
                <mxCell id="818" value="" style="rounded=0;whiteSpace=wrap;html=1;fontSize=16;fillColor=#f8cecc;strokeColor=#b85450;" vertex="1" parent="1">
                    <mxGeometry x="420" y="2440" width="40" height="40" as="geometry"/>
                </mxCell>
                <mxCell id="819" value="" style="rounded=0;whiteSpace=wrap;html=1;fontSize=16;" vertex="1" parent="1">
                    <mxGeometry x="260" y="2480" width="40" height="40" as="geometry"/>
                </mxCell>
                <mxCell id="820" value="" style="rounded=0;whiteSpace=wrap;html=1;fontSize=16;fillColor=#f8cecc;strokeColor=#b85450;" vertex="1" parent="1">
                    <mxGeometry x="300" y="2480" width="40" height="40" as="geometry"/>
                </mxCell>
                <mxCell id="821" value="" style="rounded=0;whiteSpace=wrap;html=1;fontSize=16;fillColor=#f8cecc;strokeColor=#b85450;" vertex="1" parent="1">
                    <mxGeometry x="340" y="2480" width="40" height="40" as="geometry"/>
                </mxCell>
                <mxCell id="822" value="" style="rounded=0;whiteSpace=wrap;html=1;fontSize=16;fillColor=#f8cecc;strokeColor=#b85450;" vertex="1" parent="1">
                    <mxGeometry x="380" y="2480" width="40" height="40" as="geometry"/>
                </mxCell>
                <mxCell id="823" value="" style="rounded=0;whiteSpace=wrap;html=1;fontSize=16;" vertex="1" parent="1">
                    <mxGeometry x="420" y="2480" width="40" height="40" as="geometry"/>
                </mxCell>
                <mxCell id="824" value="" style="rounded=0;whiteSpace=wrap;html=1;fontSize=16;fillColor=#f8cecc;strokeColor=#b85450;" vertex="1" parent="1">
                    <mxGeometry x="260" y="2520" width="40" height="40" as="geometry"/>
                </mxCell>
                <mxCell id="825" value="" style="rounded=0;whiteSpace=wrap;html=1;fontSize=16;fillColor=#f8cecc;strokeColor=#b85450;" vertex="1" parent="1">
                    <mxGeometry x="300" y="2520" width="40" height="40" as="geometry"/>
                </mxCell>
                <mxCell id="826" value="" style="rounded=0;whiteSpace=wrap;html=1;fontSize=16;" vertex="1" parent="1">
                    <mxGeometry x="340" y="2520" width="40" height="40" as="geometry"/>
                </mxCell>
                <mxCell id="827" value="" style="rounded=0;whiteSpace=wrap;html=1;fontSize=16;" vertex="1" parent="1">
                    <mxGeometry x="380" y="2520" width="40" height="40" as="geometry"/>
                </mxCell>
                <mxCell id="828" value="" style="rounded=0;whiteSpace=wrap;html=1;fontSize=16;" vertex="1" parent="1">
                    <mxGeometry x="420" y="2520" width="40" height="40" as="geometry"/>
                </mxCell>
                <mxCell id="829" value="" style="rounded=0;whiteSpace=wrap;html=1;fontSize=16;fillColor=#f8cecc;strokeColor=#b85450;" vertex="1" parent="1">
                    <mxGeometry x="260" y="2560" width="40" height="40" as="geometry"/>
                </mxCell>
                <mxCell id="830" value="" style="rounded=0;whiteSpace=wrap;html=1;fontSize=16;" vertex="1" parent="1">
                    <mxGeometry x="300" y="2560" width="40" height="40" as="geometry"/>
                </mxCell>
                <mxCell id="831" value="" style="rounded=0;whiteSpace=wrap;html=1;fontSize=16;" vertex="1" parent="1">
                    <mxGeometry x="340" y="2560" width="40" height="40" as="geometry"/>
                </mxCell>
                <mxCell id="832" value="" style="rounded=0;whiteSpace=wrap;html=1;fontSize=16;" vertex="1" parent="1">
                    <mxGeometry x="380" y="2560" width="40" height="40" as="geometry"/>
                </mxCell>
                <mxCell id="833" value="" style="rounded=0;whiteSpace=wrap;html=1;fontSize=16;" vertex="1" parent="1">
                    <mxGeometry x="420" y="2560" width="40" height="40" as="geometry"/>
                </mxCell>
                <mxCell id="834" value="" style="endArrow=classic;html=1;fontSize=16;startArrow=none;" edge="1" parent="1" source="841">
                    <mxGeometry width="50" height="50" relative="1" as="geometry">
                        <mxPoint x="240" y="2590" as="sourcePoint"/>
                        <mxPoint x="480" y="2410" as="targetPoint"/>
                    </mxGeometry>
                </mxCell>
                <mxCell id="836" value="&lt;font style=&quot;font-size: 24px&quot;&gt;&lt;b&gt;Fast Voxel Traversal&lt;/b&gt;&lt;/font&gt;" style="text;html=1;align=center;verticalAlign=middle;resizable=0;points=[];autosize=1;strokeColor=none;fillColor=none;" vertex="1" parent="1">
                    <mxGeometry x="110" y="2318" width="250" height="20" as="geometry"/>
                </mxCell>
                <mxCell id="838" value="" style="ellipse;whiteSpace=wrap;html=1;fontSize=16;fillColor=#dae8fc;strokeColor=#6c8ebf;" vertex="1" parent="1">
                    <mxGeometry x="255" y="2570" width="10" height="10" as="geometry"/>
                </mxCell>
                <mxCell id="839" value="" style="endArrow=none;html=1;fontSize=16;" edge="1" parent="1" target="838">
                    <mxGeometry width="50" height="50" relative="1" as="geometry">
                        <mxPoint x="240" y="2590" as="sourcePoint"/>
                        <mxPoint x="480" y="2410" as="targetPoint"/>
                    </mxGeometry>
                </mxCell>
                <mxCell id="841" value="" style="ellipse;whiteSpace=wrap;html=1;fontSize=16;fillColor=#dae8fc;strokeColor=#6c8ebf;" vertex="1" parent="1">
                    <mxGeometry x="454.33000000000004" y="2420" width="10" height="10" as="geometry"/>
                </mxCell>
                <mxCell id="842" value="" style="endArrow=none;html=1;fontSize=16;startArrow=none;" edge="1" parent="1" source="838" target="841">
                    <mxGeometry width="50" height="50" relative="1" as="geometry">
                        <mxPoint x="264.00290932342455" y="2572.003883021558" as="sourcePoint"/>
                        <mxPoint x="480" y="2410" as="targetPoint"/>
                    </mxGeometry>
                </mxCell>
                <mxCell id="843" value="\(V_{min}\)" style="text;html=1;align=center;verticalAlign=middle;resizable=1;points=[];autosize=1;strokeColor=none;fillColor=none;movable=1;rotatable=1;deletable=1;editable=1;connectable=1;" vertex="1" parent="1">
                    <mxGeometry x="230" y="2600" width="70" height="20" as="geometry"/>
                </mxCell>
                <mxCell id="844" value="\(V_{max}\)" style="text;html=1;align=center;verticalAlign=middle;resizable=1;points=[];autosize=1;strokeColor=none;fillColor=none;movable=1;rotatable=1;deletable=1;editable=1;connectable=1;" vertex="1" parent="1">
                    <mxGeometry x="415" y="2380" width="80" height="20" as="geometry"/>
                </mxCell>
                <mxCell id="845" value="" style="shape=waypoint;sketch=0;fillStyle=solid;size=6;pointerEvents=1;points=[];fillColor=none;resizable=0;rotatable=0;perimeter=centerPerimeter;snapToPoint=1;fontSize=16;" vertex="1" parent="1">
                    <mxGeometry x="260" y="2540" width="40" height="40" as="geometry"/>
                </mxCell>
                <mxCell id="846" value="" style="shape=waypoint;sketch=0;fillStyle=solid;size=6;pointerEvents=1;points=[];fillColor=none;resizable=0;rotatable=0;perimeter=centerPerimeter;snapToPoint=1;fontSize=16;" vertex="1" parent="1">
                    <mxGeometry x="280" y="2525" width="40" height="40" as="geometry"/>
                </mxCell>
                <mxCell id="847" value="" style="shape=waypoint;sketch=0;fillStyle=solid;size=6;pointerEvents=1;points=[];fillColor=none;resizable=0;rotatable=0;perimeter=centerPerimeter;snapToPoint=1;fontSize=16;" vertex="1" parent="1">
                    <mxGeometry x="313" y="2500" width="40" height="40" as="geometry"/>
                </mxCell>
                <mxCell id="849" value="" style="shape=waypoint;sketch=0;fillStyle=solid;size=6;pointerEvents=1;points=[];fillColor=none;resizable=0;rotatable=0;perimeter=centerPerimeter;snapToPoint=1;fontSize=16;" vertex="1" parent="1">
                    <mxGeometry x="320" y="2495" width="40" height="40" as="geometry"/>
                </mxCell>
                <mxCell id="850" value="" style="shape=waypoint;sketch=0;fillStyle=solid;size=6;pointerEvents=1;points=[];fillColor=none;resizable=0;rotatable=0;perimeter=centerPerimeter;snapToPoint=1;fontSize=16;" vertex="1" parent="1">
                    <mxGeometry x="359" y="2466" width="40" height="40" as="geometry"/>
                </mxCell>
                <mxCell id="851" value="" style="shape=waypoint;sketch=0;fillStyle=solid;size=6;pointerEvents=1;points=[];fillColor=none;resizable=0;rotatable=0;perimeter=centerPerimeter;snapToPoint=1;fontSize=16;" vertex="1" parent="1">
                    <mxGeometry x="367" y="2460" width="40" height="40" as="geometry"/>
                </mxCell>
                <mxCell id="852" value="" style="shape=waypoint;sketch=0;fillStyle=solid;size=6;pointerEvents=1;points=[];fillColor=none;resizable=0;rotatable=0;perimeter=centerPerimeter;snapToPoint=1;fontSize=16;" vertex="1" parent="1">
                    <mxGeometry x="400" y="2435" width="40" height="40" as="geometry"/>
                </mxCell>
                <mxCell id="853" value="" style="shape=waypoint;sketch=0;fillStyle=solid;size=6;pointerEvents=1;points=[];fillColor=none;resizable=0;rotatable=0;perimeter=centerPerimeter;snapToPoint=1;fontSize=16;" vertex="1" parent="1">
                    <mxGeometry x="419" y="2421" width="40" height="40" as="geometry"/>
                </mxCell>
            </root>
        </mxGraphModel>
    </diagram>
</mxfile>